<svg version="1.1" xmlns="http://www.w3.org/2000/svg" xmlns:xlink="http://www.w3.org/1999/xlink" stroke-linecap="round" stroke-linejoin="round" stroke-width="0" fill-rule="evenodd" clip-rule="evenodd" id="pxxSmDuW-8JGaRiC546n_bottom" viewBox="0 0 57912 83000" width="57.912mm" height="83mm" class="w-100 h-100"><defs><style>.pxxSmDuW-8JGaRiC546n_fr4 {color: #666666;}
.pxxSmDuW-8JGaRiC546n_cu {color: #cccccc;}
.pxxSmDuW-8JGaRiC546n_cf {color: #f5f5f5;}
.pxxSmDuW-8JGaRiC546n_sm {color: #000064; opacity: 0.75;}
.pxxSmDuW-8JGaRiC546n_ss {color: #ffffff;}
.pxxSmDuW-8JGaRiC546n_sp {color: #999999;}
.pxxSmDuW-8JGaRiC546n_out {color: #000000;}</style><circle cx="0" cy="0" r="2563.5" id="no9AyebdmEpjNMVboNKO_pad-10"/><circle cx="0" cy="0" r="901.7" id="no9AyebdmEpjNMVboNKO_pad-11"/><rect x="-825.5" y="-4064" width="1651" height="8128" id="no9AyebdmEpjNMVboNKO_pad-13"/><circle cx="0" cy="0" r="365.5" id="no9AyebdmEpjNMVboNKO_pad-14"/><rect x="-762" y="-4000.5" width="1524" height="8001" id="wxxP3Zchh0ZqATLRO1vK_pad-10"/><mask id="zz7B0upcNVMtEkcaUB-m_clear-1" fill="#000" stroke="#000"><g><rect x="381.1" y="381.1" width="57149.8" height="82237.8" fill="#fff"/><path d="M 7431.7 21135.5 7431.7 21135.5 7165.5 21401.7 7165.5 21778.3 7191.2 21804 7196.5 21811.3 7202.5 21818.3 7203.7 21821.3 7205.6 21823.9 7208.3 21832.6 7211.7 21841.1 7212.1 21845.2 7212.8 21847.4 7212.7 21850.7 7213.5 21857.8 7213.5 64938.4 9991.6 67716.5 10591.8 67716.5 10593.8 67716.8 10595.7 67716.6 10605.9 67718.8 10616.1 67720.4 10617.8 67721.4 10619.8 67721.8 10628.7 67727.1 10637.8 67732 10639.2 67733.4 10640.9 67734.4 10647.6 67742.3 10654.8 67749.8 10655.6 67751.6 10656.9 67753.1 10660.8 67762.7 10665.1 67772.1 10665.3 67774.1 10666.1 67775.9 10667.9 67792.6 10667.9 68680.8 10783.9 68960.9 11001.2 69178.2 11006.5 69185.6 11012.5 69192.5 11013.7 69195.5 11015.6 69198.1 11018.3 69206.8 11021.7 69215.3 11022.1 69219.4 11022.8 69221.6 11022.7 69224.9 11023.5 69232 11023.5 71077.6 11022.1 71086.6 11021.3 71095.7 11020.1 71098.7 11019.6 71101.9 11015.3 71110 11011.7 71118.3 11009.1 71121.6 11008 71123.6 11005.7 71125.8 11001.2 71131.4 10783.9 71348.7 10667.9 71628.8 10667.9 73151.2 10783.9 73431.3 10998.3 73645.7 11278.4 73761.7 11581.6 73761.7 11861.7 73645.7 12076.1 73431.3 12192.1 73151.2 12192.1 72872.6 12192.4 72870.6 12192.2 72868.7 12194.4 72858.5 12196 72848.3 12197 72846.6 12197.4 72844.6 12202.7 72835.7 12207.6 72826.6 12209 72825.2 12210 72823.5 12217.9 72816.8 12225.4 72809.6 12227.2 72808.8 12228.7 72807.5 12238.3 72803.6 12247.7 72799.3 12249.7 72799.1 12251.5 72798.3 12268.2 72796.5 13131.8 72796.5 13133.8 72796.8 13135.7 72796.6 13145.9 72798.8 13156.1 72800.4 13157.8 72801.4 13159.8 72801.8 13168.7 72807.1 13177.8 72812 13179.2 72813.4 13180.9 72814.4 13187.6 72822.3 13194.8 72829.8 13195.6 72831.6 13196.9 72833.1 13200.8 72842.7 13205.1 72852.1 13205.3 72854.1 13206.1 72855.9 13207.9 72872.6 13207.9 73151.2 13323.9 73431.3 13538.3 73645.7 13818.4 73761.7 14121.6 73761.7 14401.7 73645.7 14616.1 73431.3 14732.1 73151.2 14732.1 71628.8 14616.1 71348.7 14398.8 71131.4 14393.5 71124 14387.5 71117.1 14386.3 71114.1 14384.4 71111.5 14381.7 71102.8 14378.3 71094.3 14377.9 71090.2 14377.2 71088 14377.3 71084.7 14376.5 71077.6 14376.5 69232 14377.9 69223 14378.7 69213.9 14379.9 69210.9 14380.4 69207.7 14384.7 69199.6 14388.3 69191.3 14390.9 69188 14392 69186 14394.3 69183.8 14398.8 69178.2 14616.1 68960.9 14732.1 68680.8 14732.1 67158.4 14616.1 66878.3 14401.7 66663.9 14121.6 66547.9 13818.4 66547.9 13538.3 66663.9 13321 66881.2 13313.6 66886.5 13306.7 66892.5 13303.7 66893.7 13301.1 66895.6 13292.4 66898.3 13283.9 66901.7 13279.8 66902.1 13277.6 66902.8 13274.3 66902.7 13267.2 66903.5 12132.8 66903.5 12123.8 66902.1 12114.7 66901.3 12111.7 66900.1 12108.5 66899.6 12100.4 66895.3 12092.1 66891.7 12088.8 66889.1 12086.8 66888 12084.6 66885.7 12079 66881.2 11861.7 66663.9 11581.6 66547.9 11278.4 66547.9 10998.3 66663.9 10781 66881.2 10773.6 66886.5 10766.7 66892.5 10763.7 66893.7 10761.1 66895.6 10752.4 66898.3 10743.9 66901.7 10739.8 66902.1 10737.6 66902.8 10734.3 66902.7 10727.2 66903.5 10359.9 66903.5 10350.9 66902.1 10341.8 66901.3 10338.8 66900.1 10335.6 66899.6 10327.6 66895.3 10319.2 66891.7 10316 66889.1 10313.9 66888 10311.7 66885.7 10306.1 66881.2 8048.8 64623.9 8043.5 64616.5 8037.5 64609.6 8036.3 64606.6 8034.4 64604 8031.7 64595.3 8028.3 64586.8 8027.9 64582.7 8027.2 64580.4 8027.3 64577.2 8026.5 64570.1 8026.5 21857.8 8027.9 21848.8 8028.7 21839.7 8029.9 21836.7 8030.4 21833.5 8034.7 21825.4 8038.3 21817.1 8040.9 21813.8 8042 21811.8 8044.3 21809.6 8048.8 21804 8074.5 21778.3 8074.5 21401.7 7808.3 21135.5 7431.7 21135.5"/></g></mask><mask id="zz7B0upcNVMtEkcaUB-m_clear-2" fill="#000" stroke="#000"><g><rect x="381.1" y="381.1" width="57149.8" height="82237.8" fill="#fff"/><path d="M 28576.7 39618.9 28576.7 39618.9 27843.9 39815.3 27187 40194.6 26650.6 40731 26271.3 41387.9 26074.9 42120.7 26074.9 42879.3 26271.3 43612.1 26650.6 44269 27187 44805.4 27843.9 45184.7 28576.7 45381.1 29335.3 45381.1 30068.1 45184.7 30725 44805.4 31261.4 44269 31640.7 43612.1 31837.1 42879.3 31837.1 42120.7 31640.7 41387.9 31261.4 40731 30725 40194.6 30068.1 39815.3 29335.3 39618.9 28576.7 39618.9"/></g></mask><mask id="zz7B0upcNVMtEkcaUB-m_clear-3" fill="#000" stroke="#000"><g><rect x="381.1" y="381.1" width="57149.8" height="82237.8" fill="#fff"/><path d="M 36632.9 35839.3 36632.9 35839.3 36268.8 35990.1 35990.1 36268.8 35839.3 36632.9 35839.3 37027.1 35990.1 37391.2 36268.8 37669.9 36376.5 37714.5 36386.5 37720.6 36396.5 37726.6 36396.9 37727.1 36397.4 37727.4 36404.9 37736.4 36412.5 37745.3 36412.7 37745.9 36413.1 37746.4 36417.3 37757.2 36421.7 37768.1 36421.8 37768.9 36421.9 37769.3 36422 37771.2 36423.5 37784.8 36423.5 41071.8 36423.2 41073.8 36423.4 41075.7 36421.2 41085.9 36419.6 41096.1 36418.6 41097.8 36418.2 41099.8 36412.9 41108.7 36408 41117.8 36406.6 41119.2 36405.6 41120.9 36397.7 41127.6 36390.2 41134.8 36388.4 41135.6 36386.9 41136.9 36377.3 41140.8 36367.9 41145.1 36365.9 41145.3 36364.1 41146.1 36347.4 41147.9 36068.8 41147.9 35788.7 41263.9 35574.3 41478.3 35458.3 41758.4 35458.3 42061.6 35574.3 42341.7 35788.7 42556.1 36068.8 42672.1 37591.2 42672.1 37871.3 42556.1 38088.6 42338.8 38096 42333.5 38102.9 42327.5 38105.9 42326.3 38108.5 42324.4 38117.2 42321.7 38125.7 42318.3 38129.8 42317.9 38132 42317.2 38135.3 42317.3 38142.4 42316.5 50757.6 42316.5 50766.6 42317.9 50775.7 42318.7 50778.7 42319.9 50781.9 42320.4 50789.9 42324.7 50798.3 42328.3 50801.6 42330.9 50803.6 42332 50805.8 42334.3 50811.4 42338.8 51028.7 42556.1 51308.8 42672.1 52831.2 42672.1 53111.3 42556.1 53325.7 42341.7 53441.7 42061.6 53441.7 41758.4 53325.7 41478.3 53111.3 41263.9 52831.2 41147.9 51308.8 41147.9 51028.7 41263.9 50811.4 41481.2 50804 41486.5 50797.1 41492.5 50794.1 41493.7 50791.5 41495.6 50782.8 41498.3 50774.3 41501.7 50770.2 41502.1 50768 41502.8 50764.7 41502.7 50757.6 41503.5 38142.4 41503.5 38133.4 41502.1 38124.3 41501.3 38121.3 41500.1 38118.1 41499.6 38110.1 41495.3 38101.7 41491.7 38098.4 41489.1 38096.4 41488 38094.2 41485.7 38088.6 41481.2 37871.3 41263.9 37591.2 41147.9 37312.6 41147.9 37310.6 41147.6 37308.7 41147.8 37298.5 41145.6 37288.3 41144 37286.6 41143 37284.6 41142.6 37275.7 41137.3 37266.6 41132.4 37265.2 41131 37263.5 41130 37256.8 41122.1 37249.6 41114.6 37248.8 41112.8 37247.5 41111.3 37243.6 41101.7 37239.3 41092.3 37239.1 41090.3 37238.3 41088.5 37236.5 41071.8 37236.5 37784.8 37238.4 37773.3 37240.1 37761.7 37240.3 37761.1 37240.4 37760.5 37245.9 37750.3 37251.2 37739.8 37251.7 37739.3 37252 37738.8 37260.4 37730.8 37268.8 37722.6 37269.4 37722.2 37269.8 37721.8 37271.5 37721.1 37283.5 37714.5 37391.2 37669.9 37669.9 37391.2 37820.7 37027.1 37820.7 36632.9 37669.9 36268.8 37391.2 35990.1 37027.1 35839.3 36632.9 35839.3"/></g></mask><mask id="zz7B0upcNVMtEkcaUB-m_clear-4" fill="#000" stroke="#000"><g><rect x="381.1" y="381.1" width="57149.8" height="82237.8" fill="#fff"/><path d="M 23941.7 26215.5 23941.7 26215.5 23675.5 26481.7 23675.5 26858.3 23879 27061.8 23884.3 27069.2 23890.3 27076.1 23891.5 27079.1 23893.4 27081.7 23896.1 27090.4 23899.5 27098.9 23899.9 27103 23900.6 27105.2 23900.5 27108.5 23901.3 27115.6 23901.3 48354.7 35475.5 59928.9 35484.4 59933.4 35484.9 59933.9 35485.4 59934.2 35493.4 59942.6 35501.6 59951 35502 59951.6 35502.3 59952 35503.1 59953.7 35509.7 59965.7 35574.3 60121.7 35788.7 60336.1 36068.8 60452.1 37591.2 60452.1 37871.3 60336.1 38085.7 60121.7 38201.7 59841.6 38201.7 59538.4 38085.7 59258.3 37871.3 59043.9 37591.2 58927.9 36068.8 58927.9 35788.7 59043.9 35566.9 59265.8 35565.2 59267 35564 59268.5 35555.3 59274.1 35546.9 59280.2 35545 59280.7 35543.3 59281.8 35533.3 59284.4 35523.4 59287.4 35521.4 59287.3 35519.5 59287.8 35509.2 59287 35498.8 59286.8 35496.9 59286.1 35494.9 59285.9 35485.4 59281.9 35475.7 59278.3 35474.1 59277.1 35472.3 59276.3 35459.2 59265.8 24381 48187.6 24375.7 48180.2 24369.7 48173.2 24368.5 48170.2 24366.6 48167.6 24363.9 48158.9 24360.5 48150.4 24360.1 48146.3 24359.4 48144.1 24359.5 48140.9 24358.7 48133.7 24358.7 27115.6 24360.1 27106.6 24360.9 27097.5 24362.1 27094.5 24362.6 27091.3 24366.9 27083.2 24370.5 27074.8 24373.1 27071.6 24374.2 27069.6 24376.5 27067.4 24381 27061.8 24584.5 26858.3 24584.5 26481.7 24318.3 26215.5 23941.7 26215.5"/></g></mask><mask id="zz7B0upcNVMtEkcaUB-m_clear-5" fill="#000" stroke="#000"><g><rect x="381.1" y="381.1" width="57149.8" height="82237.8" fill="#fff"/><path d="M 15088.4 54428.3 15088.4 54428.3 14808.3 54544.3 14593.9 54758.7 14477.9 55038.8 14477.9 56561.2 14593.9 56841.3 14808.3 57055.7 14913.5 57099.2 14923.5 57105.4 14933.5 57111.4 14933.9 57111.9 14934.4 57112.2 14941.9 57121.2 14946.8 57126.9 14947.4 57127.5 14947.4 57127.7 14949.5 57130.1 14949.7 57130.7 14950.1 57131.1 14954.3 57142 14955.7 57145.4 14957.7 57149.8 14957.8 57150.8 14958.7 57152.9 14958.8 57153.6 14958.9 57154.1 14959 57155.9 14960.5 57169.6 14960.5 63352.7 14959.1 63361.7 14958.3 63370.8 14957.1 63373.8 14956.6 63377 14952.3 63385 14948.7 63393.4 14946.1 63396.7 14945 63398.7 14942.7 63400.9 14938.2 63406.5 14862 63482.7 14856.2 63486.9 14851 63491.9 14846.3 63494.1 14842.1 63497.1 14835.2 63499.2 14828.7 63502.2 14823.5 63502.8 14818.5 63504.3 14811.4 63504.1 14804.3 63504.9 14799.2 63503.8 14794 63503.7 14787.2 63501.2 14780.2 63499.7 14775.7 63497 14770.9 63495.2 14765.3 63490.8 14759.1 63487.1 14755.7 63483.1 14751.7 63479.9 14747.8 63473.8 14743.1 63468.4 14741.2 63463.6 14738.4 63459.2 14736.6 63452.2 14733.9 63445.6 14733.1 63438.5 14732.3 63435.3 14732.5 63433 14732.1 63428.9 14732.1 63399.2 14616.1 63119.1 14401.7 62904.7 14121.6 62788.7 13818.4 62788.7 13538.3 62904.7 13323.9 63119.1 13207.9 63399.2 13207.9 64921.6 13323.9 65201.7 13538.3 65416.1 13818.4 65532.1 14121.6 65532.1 14401.7 65416.1 14616.1 65201.7 14732.1 64921.6 14732.1 64434.7 14733.5 64425.7 14734.3 64416.6 14735.5 64413.6 14736 64410.4 14740.3 64402.4 14743.9 64394 14746.5 64390.8 14747.6 64388.7 14749.9 64386.5 14754.4 64380.9 15519.5 63615.8 15519.5 57169.6 15519.7 57167.9 15519.6 57166.4 15521.3 57158.6 15521.4 57158.1 15523.1 57146.5 15523.3 57145.9 15523.4 57145.3 15524.7 57143 15524.8 57142.3 15526.6 57139.3 15528.9 57135 15534.2 57124.5 15534.7 57124.1 15535 57123.6 15543.4 57115.6 15551.8 57107.3 15552.4 57107 15552.8 57106.6 15554.5 57105.8 15566.5 57099.2 15671.7 57055.7 15886.1 56841.3 16002.1 56561.2 16002.1 55038.8 15886.1 54758.7 15671.7 54544.3 15391.6 54428.3 15088.4 54428.3"/></g></mask><mask id="zz7B0upcNVMtEkcaUB-m_clear-6" fill="#000" stroke="#000"><g><rect x="381.1" y="381.1" width="57149.8" height="82237.8" fill="#fff"/><path d="M 11278.4 54428.3 11278.4 54428.3 10998.3 54544.3 10783.9 54758.7 10667.9 55038.8 10667.9 56561.2 10783.9 56841.3 10998.3 57055.7 11103.5 57099.2 11113.5 57105.4 11123.5 57111.4 11123.9 57111.9 11124.4 57112.2 11131.9 57121.2 11136.8 57126.9 11137.4 57127.5 11137.4 57127.7 11139.5 57130.1 11139.7 57130.7 11140.1 57131.1 11144.3 57142 11145.7 57145.4 11147.7 57149.8 11147.8 57150.8 11148.7 57152.9 11148.8 57153.6 11148.9 57154.1 11149 57155.9 11150.5 57169.6 11150.5 62790.8 11148.6 62802.3 11146.9 62813.9 11146.7 62814.5 11146.6 62815.1 11141.1 62825.4 11135.8 62835.9 11135.3 62836.3 11135 62836.8 11126.6 62844.8 11118.2 62853.1 11117.6 62853.4 11117.2 62853.8 11115.5 62854.6 11103.5 62861.2 10998.3 62904.7 10783.9 63119.1 10667.9 63399.2 10667.9 64921.6 10783.9 65201.7 10998.3 65416.1 11278.4 65532.1 11581.6 65532.1 11861.7 65416.1 12076.1 65201.7 12192.1 64921.6 12192.1 63399.2 12076.1 63119.1 11861.7 62904.7 11756.5 62861.2 11746.5 62855 11736.5 62849 11736.1 62848.5 11735.6 62848.2 11728.1 62839.2 11720.5 62830.3 11720.3 62829.7 11719.9 62829.3 11715.7 62818.4 11711.3 62807.5 11711.2 62806.8 11711.1 62806.3 11711 62804.5 11709.5 62790.8 11709.5 57169.6 11709.7 57167.9 11709.6 57166.4 11711.3 57158.6 11711.4 57158.1 11713.1 57146.5 11713.3 57145.9 11713.4 57145.3 11714.7 57143 11714.8 57142.3 11716.6 57139.3 11718.9 57135 11724.2 57124.5 11724.7 57124.1 11725 57123.6 11733.4 57115.6 11741.8 57107.3 11742.4 57107 11742.8 57106.6 11744.5 57105.8 11756.5 57099.2 11861.7 57055.7 12076.1 56841.3 12192.1 56561.2 12192.1 55038.8 12076.1 54758.7 11861.7 54544.3 11581.6 54428.3 11278.4 54428.3"/></g></mask><mask id="zz7B0upcNVMtEkcaUB-m_clear-7" fill="#000" stroke="#000"><g><rect x="381.1" y="381.1" width="57149.8" height="82237.8" fill="#fff"/><path d="M 36068.8 74167.9 36068.8 74167.9 35788.7 74283.9 35574.3 74498.3 35458.3 74778.4 35458.3 75081.6 35574.3 75361.7 35788.7 75576.1 36068.8 75692.1 37591.2 75692.1 37871.3 75576.1 38085.7 75361.7 38201.7 75081.6 38201.7 74778.4 38085.7 74498.3 37871.3 74283.9 37591.2 74167.9 36068.8 74167.9"/></g></mask><mask id="zz7B0upcNVMtEkcaUB-m_clear-8" fill="#000" stroke="#000"><g><rect x="381.1" y="381.1" width="57149.8" height="82237.8" fill="#fff"/><path d="M 51308.8 69087.9 51308.8 69087.9 51028.7 69203.9 50814.3 69418.3 50698.3 69698.4 50698.3 70001.6 50814.3 70281.7 51028.7 70496.1 51308.8 70612.1 52831.2 70612.1 53111.3 70496.1 53325.7 70281.7 53441.7 70001.6 53441.7 69698.4 53325.7 69418.3 53111.3 69203.9 52831.2 69087.9 51308.8 69087.9"/></g></mask><mask id="zz7B0upcNVMtEkcaUB-m_clear-9" fill="#000" stroke="#000"><g><rect x="381.1" y="381.1" width="57149.8" height="82237.8" fill="#fff"/><path d="M 36068.8 71627.9 36068.8 71627.9 35788.7 71743.9 35574.3 71958.3 35458.3 72238.4 35458.3 72541.6 35574.3 72821.7 35788.7 73036.1 36068.8 73152.1 37591.2 73152.1 37871.3 73036.1 38085.7 72821.7 38201.7 72541.6 38201.7 72238.4 38085.7 71958.3 37871.3 71743.9 37591.2 71627.9 36068.8 71627.9"/></g></mask><mask id="zz7B0upcNVMtEkcaUB-m_clear-10" fill="#000" stroke="#000"><g><rect x="381.1" y="381.1" width="57149.8" height="82237.8" fill="#fff"/><path d="M 51308.8 71627.9 51308.8 71627.9 51028.7 71743.9 50814.3 71958.3 50698.3 72238.4 50698.3 72541.6 50814.3 72821.7 51028.7 73036.1 51308.8 73152.1 52831.2 73152.1 53111.3 73036.1 53325.7 72821.7 53441.7 72541.6 53441.7 72238.4 53325.7 71958.3 53111.3 71743.9 52831.2 71627.9 51308.8 71627.9"/></g></mask><mask id="zz7B0upcNVMtEkcaUB-m_clear-11" fill="#000" stroke="#000"><g><rect x="381.1" y="381.1" width="57149.8" height="82237.8" fill="#fff"/><path d="M 36068.8 43687.9 36068.8 43687.9 35788.7 43803.9 35574.3 44018.3 35458.3 44298.4 35458.3 44601.6 35574.3 44881.7 35788.7 45096.1 36068.8 45212.1 37591.2 45212.1 37871.3 45096.1 38085.7 44881.7 38201.7 44601.6 38201.7 44298.4 38085.7 44018.3 37871.3 43803.9 37591.2 43687.9 36068.8 43687.9"/></g></mask><mask id="zz7B0upcNVMtEkcaUB-m_clear-12" fill="#000" stroke="#000"><g><rect x="381.1" y="381.1" width="57149.8" height="82237.8" fill="#fff"/><path d="M 36068.8 69087.9 36068.8 69087.9 35788.7 69203.9 35574.3 69418.3 35458.3 69698.4 35458.3 70001.6 35574.3 70281.7 35788.7 70496.1 36068.8 70612.1 37591.2 70612.1 37871.3 70496.1 38085.7 70281.7 38201.7 70001.6 38201.7 69698.4 38085.7 69418.3 37871.3 69203.9 37591.2 69087.9 36068.8 69087.9"/></g></mask><mask id="zz7B0upcNVMtEkcaUB-m_clear-13" fill="#000" stroke="#000"><g><rect x="381.1" y="381.1" width="57149.8" height="82237.8" fill="#fff"/><path d="M 51308.8 66547.9 51308.8 66547.9 51028.7 66663.9 50814.3 66878.3 50698.3 67158.4 50698.3 67461.6 50814.3 67741.7 51028.7 67956.1 51308.8 68072.1 52831.2 68072.1 53111.3 67956.1 53325.7 67741.7 53441.7 67461.6 53441.7 67158.4 53325.7 66878.3 53111.3 66663.9 52831.2 66547.9 51308.8 66547.9"/></g></mask><mask id="zz7B0upcNVMtEkcaUB-m_clear-14" fill="#000" stroke="#000"><g><rect x="381.1" y="381.1" width="57149.8" height="82237.8" fill="#fff"/><path d="M 36068.8 66547.9 36068.8 66547.9 35788.7 66663.9 35574.3 66878.3 35458.3 67158.4 35458.3 67461.6 35574.3 67741.7 35788.7 67956.1 36068.8 68072.1 37591.2 68072.1 37871.3 67956.1 38085.7 67741.7 38201.7 67461.6 38201.7 67158.4 38085.7 66878.3 37871.3 66663.9 37591.2 66547.9 36068.8 66547.9"/></g></mask><mask id="zz7B0upcNVMtEkcaUB-m_clear-15" fill="#000" stroke="#000"><g><rect x="381.1" y="381.1" width="57149.8" height="82237.8" fill="#fff"/><path d="M 36068.8 64007.9 36068.8 64007.9 35788.7 64123.9 35574.3 64338.3 35458.3 64618.4 35458.3 64921.6 35574.3 65201.7 35788.7 65416.1 36068.8 65532.1 37591.2 65532.1 37871.3 65416.1 38085.7 65201.7 38201.7 64921.6 38201.7 64618.4 38085.7 64338.3 37871.3 64123.9 37591.2 64007.9 36068.8 64007.9"/></g></mask><mask id="zz7B0upcNVMtEkcaUB-m_clear-16" fill="#000" stroke="#000"><g><rect x="381.1" y="381.1" width="57149.8" height="82237.8" fill="#fff"/><path d="M 36068.8 56387.9 36068.8 56387.9 35788.7 56503.9 35574.3 56718.3 35458.3 56998.4 35458.3 57301.6 35574.3 57581.7 35788.7 57796.1 36068.8 57912.1 37591.2 57912.1 37871.3 57796.1 38085.7 57581.7 38201.7 57301.6 38201.7 56998.4 38085.7 56718.3 37871.3 56503.9 37591.2 56387.9 36068.8 56387.9"/></g></mask><mask id="zz7B0upcNVMtEkcaUB-m_clear-17" fill="#000" stroke="#000"><g><rect x="381.1" y="381.1" width="57149.8" height="82237.8" fill="#fff"/><path d="M 36068.8 46227.9 36068.8 46227.9 35788.7 46343.9 35574.3 46558.3 35458.3 46838.4 35458.3 47141.6 35574.3 47421.7 35788.7 47636.1 36068.8 47752.1 37591.2 47752.1 37871.3 47636.1 38085.7 47421.7 38201.7 47141.6 38201.7 46838.4 38085.7 46558.3 37871.3 46343.9 37591.2 46227.9 36068.8 46227.9"/></g></mask><mask id="zz7B0upcNVMtEkcaUB-m_clear-18" fill="#000" stroke="#000"><g><rect x="381.1" y="381.1" width="57149.8" height="82237.8" fill="#fff"/><path d="M 2311.3 4648.1 2311.3 4648.1 2311.3 8750.4 2954.4 8750.4 3019.1 8733.1 3077 8699.6 3124.3 8652.3 3157.8 8594.4 3175.1 8529.7 3175.1 4648.1 2311.3 4648.1"/></g></mask><mask id="zz7B0upcNVMtEkcaUB-m_clear-19" fill="#000" stroke="#000"><g><rect x="381.1" y="381.1" width="57149.8" height="82237.8" fill="#fff"/><path d="M 55651.3 4648.1 55651.3 4648.1 55651.3 8750.4 56294.4 8750.4 56359.1 8733.1 56417 8699.6 56464.3 8652.3 56497.8 8594.4 56515.1 8529.7 56515.1 4648.1 55651.3 4648.1"/></g></mask><mask id="zz7B0upcNVMtEkcaUB-m_clear-20" fill="#000" stroke="#000"><g><rect x="381.1" y="381.1" width="57149.8" height="82237.8" fill="#fff"/><path d="M 54482.9 4648.1 54482.9 4648.1 54482.9 8529.7 54500.2 8594.4 54533.7 8652.3 54581 8699.6 54638.9 8733.1 54703.6 8750.4 55346.7 8750.4 55346.7 4648.1 54482.9 4648.1"/></g></mask><mask id="zz7B0upcNVMtEkcaUB-m_clear-21" fill="#000" stroke="#000"><g><rect x="381.1" y="381.1" width="57149.8" height="82237.8" fill="#fff"/><path d="M 1142.9 4648.1 1142.9 4648.1 1142.9 8529.7 1160.2 8594.4 1193.7 8652.3 1241 8699.6 1298.9 8733.1 1363.6 8750.4 2006.7 8750.4 2006.7 4648.1 1142.9 4648.1"/></g></mask><mask id="zz7B0upcNVMtEkcaUB-m_clear-22" fill="#000" stroke="#000"><g><rect x="381.1" y="381.1" width="57149.8" height="82237.8" fill="#fff"/><path d="M 52222.3 75082.3 52222.3 75082.3 52222.3 75793.7 52764.7 75793.7 52931.5 75760.5 53088.7 75695.4 53230.2 75600.9 53350.5 75480.6 53445 75339.1 53510.1 75181.9 53529.9 75082.3 52222.3 75082.3"/></g></mask><mask id="zz7B0upcNVMtEkcaUB-m_clear-23" fill="#000" stroke="#000"><g><rect x="381.1" y="381.1" width="57149.8" height="82237.8" fill="#fff"/><path d="M 11582.3 45952.3 11582.3 45952.3 11582.3 47259.9 11681.9 47240.1 11839.1 47175 11980.6 47080.5 12100.9 46960.2 12195.4 46818.7 12260.5 46661.5 12293.7 46494.7 12293.7 45952.3 11582.3 45952.3"/></g></mask><mask id="zz7B0upcNVMtEkcaUB-m_clear-24" fill="#000" stroke="#000"><g><rect x="381.1" y="381.1" width="57149.8" height="82237.8" fill="#fff"/><path d="M 15392.3 45952.3 15392.3 45952.3 15392.3 47259.9 15491.9 47240.1 15649.1 47175 15790.6 47080.5 15910.9 46960.2 16005.4 46818.7 16070.5 46661.5 16103.7 46494.7 16103.7 45952.3 15392.3 45952.3"/></g></mask><mask id="zz7B0upcNVMtEkcaUB-m_clear-25" fill="#000" stroke="#000"><g><rect x="381.1" y="381.1" width="57149.8" height="82237.8" fill="#fff"/><path d="M 15392.3 45647.7 15392.3 45647.7 16103.7 45647.7 16103.7 45105.3 16070.5 44938.5 16005.4 44781.3 15910.9 44639.8 15790.6 44519.5 15649.1 44425 15491.9 44359.9 15392.3 44340.1 15392.3 45647.7"/></g></mask><mask id="zz7B0upcNVMtEkcaUB-m_clear-26" fill="#000" stroke="#000"><g><rect x="381.1" y="381.1" width="57149.8" height="82237.8" fill="#fff"/><path d="M 11582.3 45647.7 11582.3 45647.7 12293.7 45647.7 12293.7 45105.3 12260.5 44938.5 12195.4 44781.3 12100.9 44639.8 11980.6 44519.5 11839.1 44425 11681.9 44359.9 11582.3 44340.1 11582.3 45647.7"/></g></mask><mask id="zz7B0upcNVMtEkcaUB-m_clear-27" fill="#000" stroke="#000"><g><rect x="381.1" y="381.1" width="57149.8" height="82237.8" fill="#fff"/><path d="M 50610.1 75082.3 50610.1 75082.3 50629.9 75181.9 50695 75339.1 50789.5 75480.6 50909.8 75600.9 51051.3 75695.4 51208.5 75760.5 51375.3 75793.7 51917.7 75793.7 51917.7 75082.3 50610.1 75082.3"/></g></mask><mask id="zz7B0upcNVMtEkcaUB-m_clear-28" fill="#000" stroke="#000"><g><rect x="381.1" y="381.1" width="57149.8" height="82237.8" fill="#fff"/><path d="M 14376.3 45952.3 14376.3 45952.3 14376.3 46494.7 14409.5 46661.5 14474.6 46818.7 14569.1 46960.2 14689.4 47080.5 14830.9 47175 14988.1 47240.1 15087.7 47259.9 15087.7 45952.3 14376.3 45952.3"/></g></mask><mask id="zz7B0upcNVMtEkcaUB-m_clear-29" fill="#000" stroke="#000"><g><rect x="381.1" y="381.1" width="57149.8" height="82237.8" fill="#fff"/><path d="M 52222.3 74066.3 52222.3 74066.3 52222.3 74777.7 53529.9 74777.7 53510.1 74678.1 53445 74520.9 53350.5 74379.4 53230.2 74259.1 53088.7 74164.6 52931.5 74099.5 52764.7 74066.3 52222.3 74066.3"/></g></mask><mask id="zz7B0upcNVMtEkcaUB-m_clear-30" fill="#000" stroke="#000"><g><rect x="381.1" y="381.1" width="57149.8" height="82237.8" fill="#fff"/><path d="M 10566.3 45952.3 10566.3 45952.3 10566.3 46494.7 10599.5 46661.5 10664.6 46818.7 10759.1 46960.2 10879.4 47080.5 11020.9 47175 11178.1 47240.1 11277.7 47259.9 11277.7 45952.3 10566.3 45952.3"/></g></mask><mask id="zz7B0upcNVMtEkcaUB-m_clear-31" fill="#000" stroke="#000"><g><rect x="381.1" y="381.1" width="57149.8" height="82237.8" fill="#fff"/><path d="M 14988.1 44359.9 14988.1 44359.9 14830.9 44425 14689.4 44519.5 14569.1 44639.8 14474.6 44781.3 14409.5 44938.5 14376.3 45105.3 14376.3 45647.7 15087.7 45647.7 15087.7 44340.1 14988.1 44359.9"/></g></mask><mask id="zz7B0upcNVMtEkcaUB-m_clear-32" fill="#000" stroke="#000"><g><rect x="381.1" y="381.1" width="57149.8" height="82237.8" fill="#fff"/><path d="M 11178.1 44359.9 11178.1 44359.9 11020.9 44425 10879.4 44519.5 10759.1 44639.8 10664.6 44781.3 10599.5 44938.5 10566.3 45105.3 10566.3 45647.7 11277.7 45647.7 11277.7 44340.1 11178.1 44359.9"/></g></mask><mask id="zz7B0upcNVMtEkcaUB-m_clear-33" fill="#000" stroke="#000"><g><rect x="381.1" y="381.1" width="57149.8" height="82237.8" fill="#fff"/><path d="M 51375.3 74066.3 51375.3 74066.3 51208.5 74099.5 51051.3 74164.6 50909.8 74259.1 50789.5 74379.4 50695 74520.9 50629.9 74678.1 50610.1 74777.7 51917.7 74777.7 51917.7 74066.3 51375.3 74066.3"/></g></mask><mask id="zz7B0upcNVMtEkcaUB-m_clear-34" fill="#000" stroke="#000"><g><rect x="381.1" y="381.1" width="57149.8" height="82237.8" fill="#fff"/><path d="M 39522.3 36982.3 39522.3 36982.3 39522.3 37911.8 39625.8 37895.4 39789.3 37842.2 39942.5 37764.2 40081.6 37663.1 40203.1 37541.6 40304.2 37402.5 40382.2 37249.3 40435.4 37085.8 40451.8 36982.3 39522.3 36982.3"/></g></mask><mask id="zz7B0upcNVMtEkcaUB-m_clear-35" fill="#000" stroke="#000"><g><rect x="381.1" y="381.1" width="57149.8" height="82237.8" fill="#fff"/><path d="M 38288.2 36982.3 38288.2 36982.3 38304.6 37085.8 38357.8 37249.3 38435.8 37402.5 38536.9 37541.6 38658.4 37663.1 38797.5 37764.2 38950.7 37842.2 39114.2 37895.4 39217.7 37911.8 39217.7 36982.3 38288.2 36982.3"/></g></mask><mask id="zz7B0upcNVMtEkcaUB-m_clear-36" fill="#000" stroke="#000"><g><rect x="381.1" y="381.1" width="57149.8" height="82237.8" fill="#fff"/><path d="M 39522.3 36677.7 39522.3 36677.7 40451.8 36677.7 40435.4 36574.2 40382.2 36410.7 40304.2 36257.5 40203.1 36118.4 40081.6 35996.9 39942.5 35895.8 39789.3 35817.8 39625.8 35764.6 39522.3 35748.2 39522.3 36677.7"/></g></mask><mask id="zz7B0upcNVMtEkcaUB-m_clear-37" fill="#000" stroke="#000"><g><rect x="381.1" y="381.1" width="57149.8" height="82237.8" fill="#fff"/><path d="M 39114.2 35764.6 39114.2 35764.6 38950.7 35817.8 38797.5 35895.8 38658.4 35996.9 38536.9 36118.4 38435.8 36257.5 38357.8 36410.7 38304.6 36574.2 38288.2 36677.7 39217.7 36677.7 39217.7 35748.2 39114.2 35764.6"/></g></mask><mask id="zz7B0upcNVMtEkcaUB-m_clear-38" fill="#000" stroke="#000"><g><rect x="381.1" y="381.1" width="57149.8" height="82237.8" fill="#fff"/><path d="M 15239.9 45799.9 15239.9 45799.9 15239.9 45800.1 15240.1 45800.1 15240.1 45799.9 15239.9 45799.9"/></g></mask><mask id="zz7B0upcNVMtEkcaUB-m_clear-39" fill="#000" stroke="#000"><g><rect x="381.1" y="381.1" width="57149.8" height="82237.8" fill="#fff"/><path d="M 11429.9 45799.9 11429.9 45799.9 11429.9 45800.1 11430.1 45800.1 11430.1 45799.9 11429.9 45799.9"/></g></mask><mask id="zz7B0upcNVMtEkcaUB-m_clear-40" fill="#000" stroke="#000"><g><rect x="381.1" y="381.1" width="57149.8" height="82237.8" fill="#fff"/><path d="M 39369.9 36829.9 39369.9 36829.9 39369.9 36830.1 39370.1 36830.1 39370.1 36829.9 39369.9 36829.9"/></g></mask><mask id="zz7B0upcNVMtEkcaUB-m_clear-41" fill="#000" stroke="#000"><g><rect x="381.1" y="381.1" width="57149.8" height="82237.8" fill="#fff"/><path d="M 52069.9 74929.9 52069.9 74929.9 52069.9 74930.1 52070.1 74930.1 52070.1 74929.9 52069.9 74929.9"/></g></mask><circle cx="0" cy="0" r="838.2" id="zz7B0upcNVMtEkcaUB-m_pad-10"/><rect x="-762" y="-4000.5" width="1524" height="8001" id="zz7B0upcNVMtEkcaUB-m_pad-12"/><circle cx="0" cy="0" r="302" id="zz7B0upcNVMtEkcaUB-m_pad-14"/><circle cx="0" cy="0" r="2500" id="hbtbdly8Opy6NgCjrHDV_pad-1"/><circle cx="0" cy="0" r="406.5" id="hbtbdly8Opy6NgCjrHDV_pad-2"/><circle cx="0" cy="0" r="175" id="hbtbdly8Opy6NgCjrHDV_pad-3"/><g id="pxxSmDuW-8JGaRiC546n_bottom_soldermask"><use xlink:href="#no9AyebdmEpjNMVboNKO_pad-10" x="28956" y="42500"/><use xlink:href="#no9AyebdmEpjNMVboNKO_pad-11" x="36830" y="36830"/><use xlink:href="#no9AyebdmEpjNMVboNKO_pad-11" x="39370" y="36830"/><path d="M 51460.4 41910 52679.6 41910 M 52679.6 44450 51460.4 44450 M 51460.4 57150 52679.6 57150 M 52679.6 59690 51460.4 59690 M 51460.4 46990 52679.6 46990 M 52679.6 49530 51460.4 49530 M 51460.4 54610 52679.6 54610 M 52679.6 52070 51460.4 52070 M 51460.4 62230 52679.6 62230 M 52679.6 64770 51460.4 64770 M 51460.4 67310 52679.6 67310 M 52679.6 69850 51460.4 69850 M 51460.4 72390 52679.6 72390 M 52679.6 74930 51460.4 74930 M 37439.6 74930 36220.4 74930 M 36220.4 72390 37439.6 72390 M 37439.6 69850 36220.4 69850 M 36220.4 67310 37439.6 67310 M 37439.6 64770 36220.4 64770 M 36220.4 62230 37439.6 62230 M 37439.6 59690 36220.4 59690 M 36220.4 57150 37439.6 57150 M 37439.6 54610 36220.4 54610 M 36220.4 52070 37439.6 52070 M 37439.6 49530 36220.4 49530 M 36220.4 46990 37439.6 46990 M 37439.6 44450 36220.4 44450 M 36220.4 41910 37439.6 41910 M 11430 45190.4 11430 46409.6 M 11430 55190.4 11430 56409.6 M 15240 46409.6 15240 45190.4 M 15240 55190.4 15240 56409.6" fill="none" stroke-width="1346.2"/><use xlink:href="#no9AyebdmEpjNMVboNKO_pad-13" x="2159" y="4495.8"/><use xlink:href="#no9AyebdmEpjNMVboNKO_pad-13" x="4699" y="4495.8"/><use xlink:href="#no9AyebdmEpjNMVboNKO_pad-13" x="7239" y="4495.8"/><use xlink:href="#no9AyebdmEpjNMVboNKO_pad-13" x="9779" y="4495.8"/><use xlink:href="#no9AyebdmEpjNMVboNKO_pad-13" x="12319" y="4495.8"/><use xlink:href="#no9AyebdmEpjNMVboNKO_pad-13" x="14859" y="4495.8"/><use xlink:href="#no9AyebdmEpjNMVboNKO_pad-13" x="17399" y="4495.8"/><use xlink:href="#no9AyebdmEpjNMVboNKO_pad-13" x="19939" y="4495.8"/><use xlink:href="#no9AyebdmEpjNMVboNKO_pad-13" x="22479" y="4495.8"/><use xlink:href="#no9AyebdmEpjNMVboNKO_pad-13" x="25019" y="4495.8"/><use xlink:href="#no9AyebdmEpjNMVboNKO_pad-13" x="27559" y="4495.8"/><use xlink:href="#no9AyebdmEpjNMVboNKO_pad-13" x="30099" y="4495.8"/><use xlink:href="#no9AyebdmEpjNMVboNKO_pad-13" x="32639" y="4495.8"/><use xlink:href="#no9AyebdmEpjNMVboNKO_pad-13" x="35179" y="4495.8"/><use xlink:href="#no9AyebdmEpjNMVboNKO_pad-13" x="37719" y="4495.8"/><use xlink:href="#no9AyebdmEpjNMVboNKO_pad-13" x="40259" y="4495.8"/><use xlink:href="#no9AyebdmEpjNMVboNKO_pad-13" x="42799" y="4495.8"/><use xlink:href="#no9AyebdmEpjNMVboNKO_pad-13" x="45339" y="4495.8"/><use xlink:href="#no9AyebdmEpjNMVboNKO_pad-13" x="47879" y="4495.8"/><use xlink:href="#no9AyebdmEpjNMVboNKO_pad-13" x="50419" y="4495.8"/><use xlink:href="#no9AyebdmEpjNMVboNKO_pad-13" x="52959" y="4495.8"/><use xlink:href="#no9AyebdmEpjNMVboNKO_pad-13" x="55499" y="4495.8"/><path d="M 11430 63550.8 11430 64770 M 13970 64770 13970 63550.8 M 13970 67310 13970 68529.2 M 13970 71780.4 13970 72999.6 M 11430 72999.6 11430 71780.4 M 11430 68529.2 11430 67310" fill="none" stroke-width="1346.2"/><use xlink:href="#no9AyebdmEpjNMVboNKO_pad-14" x="27940" y="16000"/><use xlink:href="#no9AyebdmEpjNMVboNKO_pad-14" x="24130" y="26670"/><use xlink:href="#no9AyebdmEpjNMVboNKO_pad-14" x="34925" y="13970"/><use xlink:href="#no9AyebdmEpjNMVboNKO_pad-14" x="22860" y="11430"/><use xlink:href="#no9AyebdmEpjNMVboNKO_pad-14" x="7620" y="21590"/></g><g id="pxxSmDuW-8JGaRiC546n_bottom_solderpaste"><use xlink:href="#wxxP3Zchh0ZqATLRO1vK_pad-10" x="2159" y="4495.8"/><use xlink:href="#wxxP3Zchh0ZqATLRO1vK_pad-10" x="4699" y="4495.8"/><use xlink:href="#wxxP3Zchh0ZqATLRO1vK_pad-10" x="7239" y="4495.8"/><use xlink:href="#wxxP3Zchh0ZqATLRO1vK_pad-10" x="9779" y="4495.8"/><use xlink:href="#wxxP3Zchh0ZqATLRO1vK_pad-10" x="12319" y="4495.8"/><use xlink:href="#wxxP3Zchh0ZqATLRO1vK_pad-10" x="14859" y="4495.8"/><use xlink:href="#wxxP3Zchh0ZqATLRO1vK_pad-10" x="17399" y="4495.8"/><use xlink:href="#wxxP3Zchh0ZqATLRO1vK_pad-10" x="19939" y="4495.8"/><use xlink:href="#wxxP3Zchh0ZqATLRO1vK_pad-10" x="22479" y="4495.8"/><use xlink:href="#wxxP3Zchh0ZqATLRO1vK_pad-10" x="25019" y="4495.8"/><use xlink:href="#wxxP3Zchh0ZqATLRO1vK_pad-10" x="27559" y="4495.8"/><use xlink:href="#wxxP3Zchh0ZqATLRO1vK_pad-10" x="30099" y="4495.8"/><use xlink:href="#wxxP3Zchh0ZqATLRO1vK_pad-10" x="32639" y="4495.8"/><use xlink:href="#wxxP3Zchh0ZqATLRO1vK_pad-10" x="35179" y="4495.8"/><use xlink:href="#wxxP3Zchh0ZqATLRO1vK_pad-10" x="37719" y="4495.8"/><use xlink:href="#wxxP3Zchh0ZqATLRO1vK_pad-10" x="40259" y="4495.8"/><use xlink:href="#wxxP3Zchh0ZqATLRO1vK_pad-10" x="42799" y="4495.8"/><use xlink:href="#wxxP3Zchh0ZqATLRO1vK_pad-10" x="45339" y="4495.8"/><use xlink:href="#wxxP3Zchh0ZqATLRO1vK_pad-10" x="47879" y="4495.8"/><use xlink:href="#wxxP3Zchh0ZqATLRO1vK_pad-10" x="50419" y="4495.8"/><use xlink:href="#wxxP3Zchh0ZqATLRO1vK_pad-10" x="52959" y="4495.8"/><use xlink:href="#wxxP3Zchh0ZqATLRO1vK_pad-10" x="55499" y="4495.8"/></g><g id="pxxSmDuW-8JGaRiC546n_bottom_copper"><g mask="url(#zz7B0upcNVMtEkcaUB-m_clear-41)"><g mask="url(#zz7B0upcNVMtEkcaUB-m_clear-40)"><g mask="url(#zz7B0upcNVMtEkcaUB-m_clear-39)"><g mask="url(#zz7B0upcNVMtEkcaUB-m_clear-38)"><g mask="url(#zz7B0upcNVMtEkcaUB-m_clear-37)"><g mask="url(#zz7B0upcNVMtEkcaUB-m_clear-36)"><g mask="url(#zz7B0upcNVMtEkcaUB-m_clear-35)"><g mask="url(#zz7B0upcNVMtEkcaUB-m_clear-34)"><g mask="url(#zz7B0upcNVMtEkcaUB-m_clear-33)"><g mask="url(#zz7B0upcNVMtEkcaUB-m_clear-32)"><g mask="url(#zz7B0upcNVMtEkcaUB-m_clear-31)"><g mask="url(#zz7B0upcNVMtEkcaUB-m_clear-30)"><g mask="url(#zz7B0upcNVMtEkcaUB-m_clear-29)"><g mask="url(#zz7B0upcNVMtEkcaUB-m_clear-28)"><g mask="url(#zz7B0upcNVMtEkcaUB-m_clear-27)"><g mask="url(#zz7B0upcNVMtEkcaUB-m_clear-26)"><g mask="url(#zz7B0upcNVMtEkcaUB-m_clear-25)"><g mask="url(#zz7B0upcNVMtEkcaUB-m_clear-24)"><g mask="url(#zz7B0upcNVMtEkcaUB-m_clear-23)"><g mask="url(#zz7B0upcNVMtEkcaUB-m_clear-22)"><g mask="url(#zz7B0upcNVMtEkcaUB-m_clear-21)"><g mask="url(#zz7B0upcNVMtEkcaUB-m_clear-20)"><g mask="url(#zz7B0upcNVMtEkcaUB-m_clear-19)"><g mask="url(#zz7B0upcNVMtEkcaUB-m_clear-18)"><g mask="url(#zz7B0upcNVMtEkcaUB-m_clear-17)"><g mask="url(#zz7B0upcNVMtEkcaUB-m_clear-16)"><g mask="url(#zz7B0upcNVMtEkcaUB-m_clear-15)"><g mask="url(#zz7B0upcNVMtEkcaUB-m_clear-14)"><g mask="url(#zz7B0upcNVMtEkcaUB-m_clear-13)"><g mask="url(#zz7B0upcNVMtEkcaUB-m_clear-12)"><g mask="url(#zz7B0upcNVMtEkcaUB-m_clear-11)"><g mask="url(#zz7B0upcNVMtEkcaUB-m_clear-10)"><g mask="url(#zz7B0upcNVMtEkcaUB-m_clear-9)"><g mask="url(#zz7B0upcNVMtEkcaUB-m_clear-8)"><g mask="url(#zz7B0upcNVMtEkcaUB-m_clear-7)"><g mask="url(#zz7B0upcNVMtEkcaUB-m_clear-6)"><g mask="url(#zz7B0upcNVMtEkcaUB-m_clear-5)"><g mask="url(#zz7B0upcNVMtEkcaUB-m_clear-4)"><g mask="url(#zz7B0upcNVMtEkcaUB-m_clear-3)"><g mask="url(#zz7B0upcNVMtEkcaUB-m_clear-2)"><g mask="url(#zz7B0upcNVMtEkcaUB-m_clear-1)"><path d="M 3710.4 381.4 3710.4 381.4 3712.3 381.2 3722.5 383.4 3732.7 385 3734.4 386 3736.4 386.4 3745.3 391.7 3754.4 396.6 3755.8 398 3757.5 399 3764.2 406.9 3771.4 414.4 3772.2 416.2 3773.5 417.7 3777.4 427.3 3781.7 436.7 3781.9 438.7 3782.7 440.5 3784.5 457.2 3784.5 8559.5 3873.8 8648.8 4394.2 8648.8 4396.2 8649.1 4398.1 8648.9 4408.3 8651.1 4418.5 8652.7 4420.2 8653.7 4422.2 8654.1 4431.1 8659.4 4440.2 8664.3 4441.6 8665.7 4443.3 8666.7 4450 8674.6 4457.2 8682.1 4458 8683.9 4459.3 8685.4 4463.2 8695 4467.5 8704.4 4467.7 8706.4 4468.5 8708.2 4470.3 8724.9 4470.3 9873.7 8639 14042.4 8644.3 14049.8 8650.3 14056.8 8651.5 14059.8 8653.4 14062.4 8656.1 14071.1 8659.5 14079.6 8659.9 14083.7 8660.6 14085.9 8660.5 14089.1 8661.3 14096.3 8661.3 34384.7 8817.6 34541 35770.8 61494.2 35772 61495.8 35773.5 61497.1 35779.1 61505.8 35785.2 61514.2 35785.7 61516.1 35786.8 61517.8 35789.4 61527.8 35792.4 61537.7 35792.3 61539.7 35792.8 61541.6 35792 61551.9 35791.8 61562.3 35791.1 61564.2 35790.9 61566.1 35786.9 61575.6 35783.3 61585.4 35782.1 61586.9 35781.3 61588.8 35770.8 61601.9 35574.3 61798.3 35458.3 62078.4 35458.3 62381.6 35574.3 62661.7 35788.7 62876.1 36068.8 62992.1 37591.2 62992.1 37871.3 62876.1 38085.7 62661.7 38201.7 62381.6 38201.7 62078.4 38085.7 61798.3 37871.3 61583.9 37591.2 61467.9 36422.9 61467.9 36413.8 61466.5 36404.8 61465.7 36401.8 61464.5 36398.6 61464 36390.5 61459.7 36382.1 61456.1 36378.9 61453.5 36376.8 61452.4 36374.6 61450.1 36369 61445.6 9141 34217.6 9135.7 34210.2 9129.7 34203.2 9128.5 34200.2 9126.6 34197.6 9123.9 34188.9 9120.5 34180.4 9120.1 34176.3 9119.4 34174.1 9119.5 34170.9 9118.7 34163.7 9118.7 13875.3 4950 9706.6 4944.7 9699.2 4938.7 9692.2 4937.5 9689.2 4935.6 9686.6 4932.9 9677.9 4929.5 9669.4 4929.1 9665.3 4928.4 9663.1 4928.5 9659.9 4927.7 9652.7 4927.7 8724.9 4928 8722.9 4927.8 8721 4930 8710.8 4931.6 8700.6 4932.6 8698.9 4933 8696.9 4938.3 8688 4943.2 8678.9 4944.6 8677.5 4945.6 8675.8 4953.5 8669.1 4961 8661.9 4962.8 8661.1 4964.3 8659.8 4973.9 8655.9 4983.3 8651.6 4985.3 8651.4 4987.1 8650.6 5003.8 8648.8 5524.2 8648.8 5613.5 8559.5 5613.5 457.2 5613.8 455.2 5613.6 453.3 5615.8 443.1 5617.4 432.9 5618.4 431.2 5618.8 429.2 5624.1 420.3 5629 411.2 5630.4 409.8 5631.4 408.1 5639.3 401.4 5646.8 394.2 5648.6 393.4 5650.1 392.1 5659.7 388.2 5669.1 383.9 5671.1 383.7 5672.9 382.9 5689.6 381.1 6248.4 381.1 6250.4 381.4 6252.3 381.2 6262.5 383.4 6272.7 385 6274.4 386 6276.4 386.4 6285.3 391.7 6294.4 396.6 6295.8 398 6297.5 399 6304.2 406.9 6311.4 414.4 6312.2 416.2 6313.5 417.7 6317.4 427.3 6321.7 436.7 6321.9 438.7 6322.7 440.5 6324.5 457.2 6324.5 8559.5 6413.8 8648.8 8064.2 8648.8 8153.5 8559.5 8153.5 457.2 8153.8 455.2 8153.6 453.3 8155.8 443.1 8157.4 432.9 8158.4 431.2 8158.8 429.2 8164.1 420.3 8169 411.2 8170.4 409.8 8171.4 408.1 8179.3 401.4 8186.8 394.2 8188.6 393.4 8190.1 392.1 8199.7 388.2 8209.1 383.9 8211.1 383.7 8212.9 382.9 8229.6 381.1 8788.4 381.1 8790.4 381.4 8792.3 381.2 8802.5 383.4 8812.7 385 8814.4 386 8816.4 386.4 8825.3 391.7 8834.4 396.6 8835.8 398 8837.5 399 8844.2 406.9 8851.4 414.4 8852.2 416.2 8853.5 417.7 8857.4 427.3 8861.7 436.7 8861.9 438.7 8862.7 440.5 8864.5 457.2 8864.5 8559.5 8953.8 8648.8 10604.2 8648.8 10693.5 8559.5 10693.5 457.2 10693.8 455.2 10693.6 453.3 10695.8 443.1 10697.4 432.9 10698.4 431.2 10698.8 429.2 10704.1 420.3 10709 411.2 10710.4 409.8 10711.4 408.1 10719.3 401.4 10726.8 394.2 10728.6 393.4 10730.1 392.1 10739.7 388.2 10749.1 383.9 10751.1 383.7 10752.9 382.9 10769.6 381.1 11328.4 381.1 11330.4 381.4 11332.3 381.2 11342.5 383.4 11352.7 385 11354.4 386 11356.4 386.4 11365.3 391.7 11374.4 396.6 11375.8 398 11377.5 399 11384.2 406.9 11391.4 414.4 11392.2 416.2 11393.5 417.7 11397.4 427.3 11401.7 436.7 11401.9 438.7 11402.7 440.5 11404.5 457.2 11404.5 8559.5 11493.8 8648.8 13144.2 8648.8 13233.5 8559.5 13233.5 457.2 13233.8 455.2 13233.6 453.3 13235.8 443.1 13237.4 432.9 13238.4 431.2 13238.8 429.2 13244.1 420.3 13249 411.2 13250.4 409.8 13251.4 408.1 13259.3 401.4 13266.8 394.2 13268.6 393.4 13270.1 392.1 13279.7 388.2 13289.1 383.9 13291.1 383.7 13292.9 382.9 13309.6 381.1 13868.4 381.1 13870.4 381.4 13872.3 381.2 13882.5 383.4 13892.7 385 13894.4 386 13896.4 386.4 13905.3 391.7 13914.4 396.6 13915.8 398 13917.5 399 13924.2 406.9 13931.4 414.4 13932.2 416.2 13933.5 417.7 13937.4 427.3 13941.7 436.7 13941.9 438.7 13942.7 440.5 13944.5 457.2 13944.5 8559.5 14033.8 8648.8 15684.2 8648.8 15773.5 8559.5 15773.5 457.2 15773.8 455.2 15773.6 453.3 15775.8 443.1 15777.4 432.9 15778.4 431.2 15778.8 429.2 15784.1 420.3 15789 411.2 15790.4 409.8 15791.4 408.1 15799.3 401.4 15806.8 394.2 15808.6 393.4 15810.1 392.1 15819.7 388.2 15829.1 383.9 15831.1 383.7 15832.9 382.9 15849.6 381.1 16408.4 381.1 16410.4 381.4 16412.3 381.2 16422.5 383.4 16432.7 385 16434.4 386 16436.4 386.4 16445.3 391.7 16454.4 396.6 16455.8 398 16457.5 399 16464.2 406.9 16471.4 414.4 16472.2 416.2 16473.5 417.7 16477.4 427.3 16481.7 436.7 16481.9 438.7 16482.7 440.5 16484.5 457.2 16484.5 8559.5 16573.8 8648.8 18224.2 8648.8 18313.5 8559.5 18313.5 457.2 18313.8 455.2 18313.6 453.3 18315.8 443.1 18317.4 432.9 18318.4 431.2 18318.8 429.2 18324.1 420.3 18329 411.2 18330.4 409.8 18331.4 408.1 18339.3 401.4 18346.8 394.2 18348.6 393.4 18350.1 392.1 18359.7 388.2 18369.1 383.9 18371.1 383.7 18372.9 382.9 18389.6 381.1 18948.4 381.1 18950.4 381.4 18952.3 381.2 18962.5 383.4 18972.7 385 18974.4 386 18976.4 386.4 18985.3 391.7 18994.4 396.6 18995.8 398 18997.5 399 19004.2 406.9 19011.4 414.4 19012.2 416.2 19013.5 417.7 19017.4 427.3 19021.7 436.7 19021.9 438.7 19022.7 440.5 19024.5 457.2 19024.5 8559.5 19113.8 8648.8 20764.2 8648.8 20853.5 8559.5 20853.5 457.2 20853.8 455.2 20853.6 453.3 20855.8 443.1 20857.4 432.9 20858.4 431.2 20858.8 429.2 20864.1 420.3 20869 411.2 20870.4 409.8 20871.4 408.1 20879.3 401.4 20886.8 394.2 20888.6 393.4 20890.1 392.1 20899.7 388.2 20909.1 383.9 20911.1 383.7 20912.9 382.9 20929.6 381.1 21488.4 381.1 21490.4 381.4 21492.3 381.2 21502.5 383.4 21512.7 385 21514.4 386 21516.4 386.4 21525.3 391.7 21534.4 396.6 21535.8 398 21537.5 399 21544.2 406.9 21551.4 414.4 21552.2 416.2 21553.5 417.7 21557.4 427.3 21561.7 436.7 21561.9 438.7 21562.7 440.5 21564.5 457.2 21564.5 8559.5 21653.8 8648.8 22174.2 8648.8 22176.2 8649.1 22178.1 8648.9 22188.3 8651.1 22198.5 8652.7 22200.2 8653.7 22202.2 8654.1 22211.1 8659.4 22220.2 8664.3 22221.6 8665.7 22223.3 8666.7 22230 8674.6 22237.2 8682.1 22238 8683.9 22239.3 8685.4 22243.2 8695 22247.5 8704.4 22247.7 8706.4 22248.5 8708.2 22250.3 8724.9 22250.3 11143.7 22383.2 11276.6 22388.5 11284 22394.5 11291 22395.7 11294 22397.6 11296.6 22400.3 11305.3 22403.7 11313.8 22404.1 11317.9 22404.8 11320.1 22404.7 11323.3 22405.5 11330.5 22405.5 11618.3 22671.7 11884.5 23048.3 11884.5 23314.5 11618.3 23314.5 11241.7 23048.3 10975.5 22783.8 10975.5 22781.8 10975.2 22779.9 10975.4 22769.7 10973.2 22759.5 10971.6 22757.8 10970.6 22755.8 10970.2 22746.9 10964.9 22737.8 10960 22736.4 10958.6 22734.7 10957.6 22728 10949.7 22720.8 10942.2 22720 10940.4 22718.7 10938.9 22714.8 10929.3 22710.5 10919.9 22710.3 10917.9 22709.5 10916.1 22707.7 10899.4 22707.7 8724.9 22708 8722.9 22707.8 8721 22710 8710.8 22711.6 8700.6 22712.6 8698.9 22713 8696.9 22718.3 8688 22723.2 8678.9 22724.6 8677.5 22725.6 8675.8 22733.5 8669.1 22741 8661.9 22742.8 8661.1 22744.3 8659.8 22753.9 8655.9 22763.3 8651.6 22765.3 8651.4 22767.1 8650.6 22783.8 8648.8 23304.2 8648.8 23393.5 8559.5 23393.5 457.2 23393.8 455.2 23393.6 453.3 23395.8 443.1 23397.4 432.9 23398.4 431.2 23398.8 429.2 23404.1 420.3 23409 411.2 23410.4 409.8 23411.4 408.1 23419.3 401.4 23426.8 394.2 23428.6 393.4 23430.1 392.1 23439.7 388.2 23449.1 383.9 23451.1 383.7 23452.9 382.9 23469.6 381.1 24028.4 381.1 24030.4 381.4 24032.3 381.2 24042.5 383.4 24052.7 385 24054.4 386 24056.4 386.4 24065.3 391.7 24074.4 396.6 24075.8 398 24077.5 399 24084.2 406.9 24091.4 414.4 24092.2 416.2 24093.5 417.7 24097.4 427.3 24101.7 436.7 24101.9 438.7 24102.7 440.5 24104.5 457.2 24104.5 8559.5 24193.8 8648.8 24714.2 8648.8 24716.2 8649.1 24718.1 8648.9 24728.3 8651.1 24738.5 8652.7 24740.2 8653.7 24742.2 8654.1 24751.1 8659.4 24760.2 8664.3 24761.6 8665.7 24763.3 8666.7 24770 8674.6 24777.2 8682.1 24778 8683.9 24779.3 8685.4 24783.2 8695 24787.5 8704.4 24787.7 8706.4 24788.5 8708.2 24790.3 8724.9 24790.3 18763.7 24946.6 18920 33353.2 27326.6 33358.5 27334 33364.5 27341 33365.7 27344 33367.6 27346.6 33370.3 27355.3 33373.7 27363.8 33374.1 27367.9 33374.8 27370.1 33374.7 27373.3 33375.5 27380.4 33375.5 50820.6 33531.8 50976.9 36272.9 53718 36277 53723.8 36282 53729 36284.2 53733.7 36287.2 53737.9 36289.3 53744.8 36292.3 53751.3 36292.9 53756.5 36294.5 53761.5 36294.3 53768.6 36295.1 53775.7 36294 53780.8 36293.8 53786 36291.4 53792.8 36289.8 53799.8 36287.2 53804.3 36285.4 53809.1 36280.9 53814.7 36277.2 53820.9 36273.3 53824.3 36270 53828.3 36264 53832.2 36258.5 53836.9 36253.7 53838.8 36249.3 53841.6 36242.4 53843.4 36235.7 53846.1 36228.6 53846.9 36225.5 53847.7 36223.1 53847.5 36219 53847.9 36068.8 53847.9 35788.7 53963.9 35574.3 54178.3 35458.3 54458.4 35458.3 54761.6 35574.3 55041.7 35788.7 55256.1 36068.8 55372.1 37591.2 55372.1 37871.3 55256.1 38085.7 55041.7 38201.7 54761.6 38201.7 54458.4 38085.7 54178.3 37871.3 53963.9 37591.2 53847.9 37081.1 53847.9 37072.1 53846.5 37063 53845.7 37060.1 53844.5 37056.9 53844 37048.8 53839.7 37040.4 53836.1 37037.2 53833.5 37035.1 53832.4 37032.9 53830.1 37027.3 53825.6 36163.7 52962 36159.5 52956.2 36154.6 52951 36152.4 52946.3 36149.3 52942.1 36147.2 52935.2 36144.2 52928.7 36143.6 52923.5 36142.1 52918.5 36142.3 52911.4 36141.5 52904.3 36142.6 52899.2 36142.7 52894 36145.2 52887.2 36146.7 52880.2 36149.4 52875.7 36151.2 52870.9 36155.7 52865.3 36159.3 52859.1 36163.3 52855.7 36166.6 52851.7 36172.6 52847.8 36178 52843.1 36182.9 52841.2 36187.3 52838.4 36194.2 52836.6 36200.9 52833.9 36208 52833.1 36211.1 52832.3 36213.4 52832.5 36217.5 52832.1 37591.2 52832.1 37871.3 52716.1 38085.7 52501.7 38201.7 52221.6 38201.7 51918.4 38085.7 51638.3 37871.3 51423.9 37591.2 51307.9 36422.9 51307.9 36413.8 51306.5 36404.8 51305.7 36401.8 51304.5 36398.6 51304 36390.5 51299.7 36382.1 51296.1 36378.9 51293.5 36376.8 51292.4 36374.6 51290.1 36369 51285.6 34261.6 49178.2 34256.3 49170.8 34250.3 49163.8 34249.1 49160.8 34247.2 49158.2 34244.5 49149.5 34241.1 49141 34240.7 49136.9 34240 49134.7 34240.1 49131.5 34239.3 49124.3 34239.3 48716.4 34240.4 48709.4 34240.6 48702.2 34242.4 48697.3 34243.2 48692.2 34246.6 48685.8 34249.1 48679.1 34252.3 48675 34254.8 48670.4 34260 48665.5 34264.4 48659.9 34268.8 48657.1 34272.6 48653.5 34279.1 48650.5 34285.1 48646.6 34290.2 48645.3 34294.9 48643.1 34302 48642.3 34309 48640.6 34314.2 48641 34319.3 48640.4 34326.4 48641.9 34333.5 48642.5 34338.3 48644.5 34343.4 48645.6 34349.5 48649.3 34356.1 48652.1 34361.7 48656.6 34364.5 48658.3 34366 48660 34369.2 48662.6 35475.5 49768.9 35484.4 49773.4 35484.9 49773.9 35485.4 49774.2 35493.4 49782.6 35501.6 49791 35502 49791.6 35502.3 49792 35503.1 49793.7 35509.7 49805.7 35574.3 49961.7 35788.7 50176.1 36068.8 50292.1 37591.2 50292.1 37871.3 50176.1 38085.7 49961.7 38201.7 49681.6 38201.7 49378.4 38085.7 49098.3 37871.3 48883.9 37591.2 48767.9 36068.8 48767.9 35788.7 48883.9 35566.9 49105.8 35565.2 49107 35564 49108.5 35555.3 49114.1 35546.9 49120.2 35545 49120.7 35543.3 49121.8 35533.3 49124.4 35523.4 49127.4 35521.4 49127.3 35519.5 49127.8 35509.2 49127 35498.8 49126.8 35496.9 49126.1 35494.9 49125.9 35485.4 49121.9 35475.7 49118.3 35474.1 49117.1 35472.3 49116.3 35459.2 49105.8 34668 48314.6 34663.3 48308.1 34661.8 48306.5 34661.5 48305.8 34656.7 48300.2 34655.5 48297.2 34653.6 48294.6 34650.9 48285.9 34647.5 48277.4 34647.1 48273.3 34646.4 48271.1 34646.5 48267.9 34645.7 48260.7 34645.7 18955.3 33271 17580.6 33265.7 17573.2 33259.7 17566.2 33258.5 17563.2 33256.6 17560.6 33253.9 17551.9 33250.5 17543.4 33250.1 17539.3 33249.4 17537.1 33249.5 17533.9 33248.7 17526.7 33248.7 8724.9 33249 8722.9 33248.8 8721 33251 8710.8 33252.6 8700.6 33253.6 8698.9 33254 8696.9 33259.3 8688 33264.2 8678.9 33265.6 8677.5 33266.6 8675.8 33274.5 8669.1 33282 8661.9 33283.8 8661.1 33285.3 8659.8 33294.9 8655.9 33304.3 8651.6 33306.3 8651.4 33308.1 8650.6 33324.8 8648.8 33464.2 8648.8 33553.5 8559.5 33553.5 457.2 33553.8 455.2 33553.6 453.3 33555.8 443.1 33557.4 432.9 33558.4 431.2 33558.8 429.2 33564.1 420.3 33569 411.2 33570.4 409.8 33571.4 408.1 33579.3 401.4 33586.8 394.2 33588.6 393.4 33590.1 392.1 33599.7 388.2 33609.1 383.9 33611.1 383.7 33612.9 382.9 33629.6 381.1 34188.4 381.1 34190.4 381.4 34192.3 381.2 34202.5 383.4 34212.7 385 34214.4 386 34216.4 386.4 34225.3 391.7 34234.4 396.6 34235.8 398 34237.5 399 34244.2 406.9 34251.4 414.4 34252.2 416.2 34253.5 417.7 34257.4 427.3 34261.7 436.7 34261.9 438.7 34262.7 440.5 34264.5 457.2 34264.5 8559.5 34353.8 8648.8 34874.2 8648.8 34876.2 8649.1 34878.1 8648.9 34888.3 8651.1 34898.5 8652.7 34900.2 8653.7 34902.2 8654.1 34911.1 8659.4 34920.2 8664.3 34921.6 8665.7 34923.3 8666.7 34930 8674.6 34937.2 8682.1 34938 8683.9 34939.3 8685.4 34943.2 8695 34947.5 8704.4 34947.7 8706.4 34948.5 8708.2 34950.3 8724.9 34950.3 9111.7 39450 13611.4 39454.2 13617.2 39459.1 13622.4 39461.3 13627.1 39464.3 13631.3 39466.4 13638.2 39469.5 13644.7 39470 13649.9 39471.6 13654.9 39471.4 13662 39472.2 13669.1 39471.1 13674.2 39470.9 13679.4 39468.5 13686.2 39467 13693.2 39464.3 13697.7 39462.5 13702.5 39458 13708.1 39454.3 13714.3 39450.4 13717.7 39447.1 13721.7 39441.1 13725.6 39435.6 13730.3 39430.8 13732.2 39426.4 13735 39419.5 13736.8 39412.8 13739.5 39405.7 13740.3 39402.6 13741.1 39400.2 13740.9 39396.2 13741.3 35370.6 13741.3 35361.6 13739.9 35352.5 13739.1 35349.5 13737.9 35346.3 13737.4 35338.2 13733.1 35329.9 13729.5 35326.6 13726.9 35324.6 13725.8 35322.4 13723.5 35316.8 13719 35113.3 13515.5 34736.7 13515.5 34470.5 13781.7 34470.5 14158.3 34736.7 14424.5 35113.3 14424.5 35316.8 14221 35324.1 14215.7 35331.1 14209.7 35334.1 14208.5 35336.7 14206.6 35345.4 14203.9 35353.9 14200.5 35358 14200.1 35360.2 14199.4 35363.5 14199.5 35370.6 14198.7 39497.7 14198.7 39506.8 14200.1 39515.8 14200.9 39518.8 14202.1 39522 14202.6 39530.1 14206.9 39538.5 14210.5 39541.7 14213.1 39543.8 14214.2 39546 14216.5 39551.6 14221 53724 28393.4 53729.3 28400.8 53735.3 28407.8 53736.5 28410.8 53738.4 28413.4 53741.1 28422.1 53744.5 28430.6 53744.9 28434.7 53745.6 28436.9 53745.5 28440.1 53746.3 28447.3 53746.3 43688.7 53744.9 43697.8 53744.1 43706.8 53742.9 43709.8 53742.4 43713 53738.1 43721.1 53734.5 43729.5 53731.9 43732.7 53730.8 43734.8 53728.5 43737 53724 43742.6 53440.8 44025.8 53439.2 44027 53437.9 44028.5 53429.2 44034.1 53420.8 44040.2 53418.9 44040.7 53417.2 44041.8 53407.2 44044.4 53397.3 44047.4 53395.3 44047.3 53393.4 44047.8 53383.1 44047 53372.7 44046.8 53370.9 44046.1 53368.9 44045.9 53359.4 44041.9 53349.6 44038.3 53348.1 44037.1 53346.2 44036.3 53333.1 44025.8 53111.3 43803.9 52831.2 43687.9 51308.8 43687.9 51028.7 43803.9 50814.3 44018.3 50698.3 44298.4 50698.3 44601.6 50814.3 44881.7 51028.7 45096.1 51308.8 45212.1 52831.2 45212.1 53111.3 45096.1 53325.7 44881.7 53390.3 44725.7 53396.4 44715.7 53402.4 44705.7 53402.9 44705.3 53403.2 44704.8 53412.2 44697.3 53421.1 44689.7 53421.7 44689.5 53422.2 44689.1 53425.6 44687.8 53921.2 44192.2 53927 44188 53932.2 44183.1 53936.9 44180.9 53941.1 44177.9 53948 44175.8 53954.5 44172.7 53959.7 44172.2 53964.7 44170.6 53971.8 44170.8 53978.9 44170 53984 44171.1 53989.2 44171.3 53996 44173.7 54003 44175.2 54007.5 44177.9 54012.3 44179.7 54017.9 44184.2 54024.1 44187.9 54027.5 44191.8 54031.5 44195.1 54035.4 44201.1 54040.1 44206.6 54042 44211.4 54044.8 44215.8 54046.6 44222.7 54049.3 44229.4 54050.1 44236.5 54050.9 44239.6 54050.7 44242 54051.1 44246 54051.1 45923.9 54049.7 45933 54048.9 45942 54047.7 45945 54047.2 45948.2 54042.9 45956.3 54039.3 45964.7 54036.7 45967.9 54035.6 45970 54033.3 45972.2 54028.8 45977.8 53440.8 46565.8 53439.2 46567 53437.9 46568.5 53429.2 46574.1 53420.8 46580.2 53418.9 46580.7 53417.2 46581.8 53407.2 46584.4 53397.3 46587.4 53395.3 46587.3 53393.4 46587.8 53383.1 46587 53372.7 46586.8 53370.9 46586.1 53368.9 46585.9 53359.4 46581.9 53349.6 46578.3 53348.1 46577.1 53346.2 46576.3 53333.1 46565.8 53111.3 46343.9 52831.2 46227.9 51308.8 46227.9 51028.7 46343.9 50814.3 46558.3 50698.3 46838.4 50698.3 47141.6 50814.3 47421.7 51028.7 47636.1 51308.8 47752.1 52831.2 47752.1 53111.3 47636.1 53325.7 47421.7 53390.3 47265.7 53396.4 47255.7 53402.4 47245.7 53402.9 47245.3 53403.2 47244.8 53412.2 47237.3 53421.1 47229.7 53421.7 47229.5 53422.2 47229.1 53425.6 47227.8 53591 47062.4 54327.6 46325.8 54333.4 46321.6 54338.6 46316.7 54343.3 46314.5 54347.5 46311.5 54354.4 46309.4 54360.9 46306.3 54366.1 46305.8 54371.1 46304.2 54378.2 46304.4 54385.3 46303.6 54390.4 46304.7 54395.6 46304.9 54402.4 46307.3 54409.4 46308.8 54413.9 46311.5 54418.7 46313.3 54424.3 46317.8 54430.5 46321.5 54433.9 46325.4 54437.9 46328.7 54441.8 46334.7 54446.5 46340.2 54448.4 46345 54451.2 46349.4 54453 46356.3 54455.7 46363 54456.5 46370.1 54457.3 46373.2 54457.1 46375.6 54457.5 46379.6 54457.5 48057.5 54456.1 48066.6 54455.3 48075.6 54454.1 48078.6 54453.6 48081.8 54449.3 48089.9 54445.7 48098.3 54443.1 48101.5 54442 48103.6 54439.7 48105.8 54435.2 48111.4 53440.8 49105.8 53439.2 49107 53437.9 49108.5 53429.2 49114.1 53420.8 49120.2 53418.9 49120.7 53417.2 49121.8 53407.2 49124.4 53397.3 49127.4 53395.3 49127.3 53393.4 49127.8 53383.1 49127 53372.7 49126.8 53370.9 49126.1 53368.9 49125.9 53359.4 49121.9 53349.6 49118.3 53348.1 49117.1 53346.2 49116.3 53333.1 49105.8 53111.3 48883.9 52831.2 48767.9 51308.8 48767.9 51028.7 48883.9 50814.3 49098.3 50698.3 49378.4 50698.3 49681.6 50814.3 49961.7 51028.7 50176.1 51308.8 50292.1 52831.2 50292.1 53111.3 50176.1 53325.7 49961.7 53390.3 49805.7 53396.4 49795.7 53402.4 49785.7 53402.9 49785.3 53403.2 49784.8 53412.2 49777.3 53421.1 49769.7 53421.7 49769.5 53422.2 49769.1 53425.6 49767.8 54734 48459.4 54739.8 48455.2 54745 48450.3 54749.7 48448.1 54753.9 48445.1 54760.8 48443 54767.3 48439.9 54772.5 48439.4 54777.5 48437.8 54784.6 48438 54791.7 48437.2 54796.8 48438.3 54802 48438.5 54808.8 48440.9 54815.8 48442.4 54820.3 48445.1 54825.1 48446.9 54830.7 48451.4 54836.9 48455.1 54840.3 48459 54844.3 48462.3 54848.2 48468.3 54852.9 48473.8 54854.8 48478.6 54857.6 48483 54859.4 48489.9 54862.1 48496.6 54862.9 48503.7 54863.7 48506.8 54863.5 48509.2 54863.9 48513.2 54863.9 50191.1 54862.5 50200.2 54861.7 50209.2 54860.5 50212.2 54860 50215.4 54855.7 50223.5 54852.1 50231.9 54849.5 50235.1 54848.4 50237.2 54846.1 50239.4 54841.6 50245 53440.8 51645.8 53439.2 51647 53437.9 51648.5 53429.2 51654.1 53420.8 51660.2 53418.9 51660.7 53417.2 51661.8 53407.2 51664.4 53397.3 51667.4 53395.3 51667.3 53393.4 51667.8 53383.1 51667 53372.7 51666.8 53370.9 51666.1 53368.9 51665.9 53359.4 51661.9 53349.6 51658.3 53348.1 51657.1 53346.2 51656.3 53333.1 51645.8 53111.3 51423.9 52831.2 51307.9 51308.8 51307.9 51028.7 51423.9 50814.3 51638.3 50698.3 51918.4 50698.3 52221.6 50814.3 52501.7 51028.7 52716.1 51308.8 52832.1 52831.2 52832.1 53111.3 52716.1 53325.7 52501.7 53390.3 52345.7 53396.4 52335.7 53402.4 52325.7 53402.9 52325.3 53403.2 52324.8 53412.2 52317.3 53421.1 52309.7 53421.7 52309.5 53422.2 52309.1 53425.6 52307.8 55140.4 50593 55146.2 50588.8 55151.4 50583.9 55156.1 50581.7 55160.3 50578.7 55167.2 50576.6 55173.7 50573.5 55178.9 50573 55183.9 50571.4 55191 50571.6 55198.1 50570.8 55203.2 50571.9 55208.4 50572.1 55215.2 50574.5 55222.2 50576 55226.7 50578.7 55231.5 50580.5 55237.1 50585 55243.3 50588.7 55246.7 50592.6 55250.7 50595.9 55254.6 50601.9 55259.3 50607.4 55261.2 50612.2 55264 50616.6 55265.8 50623.5 55268.5 50630.2 55269.3 50637.3 55270.1 50640.4 55269.9 50642.8 55270.3 50646.8 55270.3 52324.7 55268.9 52333.8 55268.1 52342.8 55266.9 52345.8 55266.4 52349 55262.1 52357.1 55258.5 52365.5 55255.9 52368.7 55254.8 52370.8 55252.5 52373 55248 52378.6 53440.8 54185.8 53439.2 54187 53437.9 54188.5 53429.2 54194.1 53420.8 54200.2 53418.9 54200.7 53417.2 54201.8 53407.2 54204.4 53397.3 54207.4 53395.3 54207.3 53393.4 54207.8 53383.1 54207 53372.7 54206.8 53370.9 54206.1 53368.9 54205.9 53359.4 54201.9 53349.6 54198.3 53348.1 54197.1 53346.2 54196.3 53333.1 54185.8 53111.3 53963.9 52831.2 53847.9 51308.8 53847.9 51028.7 53963.9 50814.3 54178.3 50698.3 54458.4 50698.3 54761.6 50814.3 55041.7 51028.7 55256.1 51308.8 55372.1 52831.2 55372.1 53111.3 55256.1 53325.7 55041.7 53390.3 54885.7 53396.4 54875.7 53402.4 54865.7 53402.9 54865.3 53403.2 54864.8 53412.2 54857.3 53421.1 54849.7 53421.7 54849.5 53422.2 54849.1 53425.6 54847.8 55496 52777.4 55501.8 52773.2 55507 52768.3 55511.7 52766.1 55515.9 52763.1 55522.8 52761 55529.3 52757.9 55534.5 52757.4 55539.5 52755.8 55546.6 52756 55553.7 52755.2 55558.8 52756.3 55564 52756.5 55570.8 52758.9 55577.8 52760.4 55582.3 52763.1 55587.1 52764.9 55592.7 52769.4 55598.9 52773.1 55602.3 52777 55606.3 52780.3 55610.2 52786.3 55614.9 52791.8 55616.8 52796.6 55619.6 52801 55621.4 52807.9 55624.1 52814.6 55624.9 52821.7 55625.7 52824.8 55625.5 52827.2 55625.9 52831.2 55625.9 54128.2 55625.8 54129 55625.8 54129.3 55625.5 54130.8 55624.5 54137.2 55623.7 54146.3 55622.5 54149.2 55622 54152.4 55617.7 54160.5 55614.1 54168.9 55611.5 54172.1 55610.4 54174.2 55608.1 54176.4 55603.6 54182 53250.3 56535.3 53248.7 56536.5 53247.4 56538 53238.7 56543.6 53230.3 56549.7 53228.4 56550.2 53226.7 56551.3 53216.7 56553.9 53206.8 56556.9 53204.8 56556.8 53202.9 56557.3 53192.6 56556.5 53182.2 56556.3 53180.3 56555.6 53178.4 56555.4 53168.9 56551.4 53159.1 56547.8 53157.6 56546.6 53155.7 56545.8 53142.6 56535.3 53111.3 56503.9 52831.2 56387.9 51308.8 56387.9 51028.7 56503.9 50814.3 56718.3 50698.3 56998.4 50698.3 57301.6 50814.3 57581.7 51028.7 57796.1 51308.8 57912.1 52831.2 57912.1 53111.3 57796.1 53325.7 57581.7 53441.7 57301.6 53441.7 57022.2 53443.1 57013.2 53443.9 57004.1 53445.1 57001.2 53445.6 56998 53449.9 56989.9 53453.5 56981.5 53456.1 56978.3 53457.2 56976.2 53459.5 56974 53464 56968.4 55902.4 54530 55908.2 54525.8 55913.4 54520.9 55918.1 54518.7 55922.3 54515.7 55929.2 54513.6 55935.7 54510.5 55940.9 54510 55945.9 54508.4 55953 54508.6 55960.1 54507.8 55965.2 54508.9 55970.4 54509.1 55977.2 54511.5 55984.2 54513 55988.6 54515.7 55993.5 54517.5 55999.1 54522 56005.3 54525.7 56008.7 54529.6 56012.7 54532.9 56016.6 54538.9 56021.3 54544.4 56023.2 54549.2 56026 54553.6 56027.8 54560.5 56030.5 54567.2 56031.3 54574.3 56032.1 54577.4 56031.9 54579.8 56032.3 54583.8 56032.3 56261.7 56030.9 56270.8 56030.1 56279.8 56028.9 56282.8 56028.4 56286 56024.1 56294.1 56020.5 56302.5 56017.9 56305.7 56016.8 56307.8 56014.5 56310 56010 56315.6 53250.3 59075.3 53248.7 59076.5 53247.4 59078 53238.7 59083.6 53230.3 59089.7 53228.4 59090.2 53226.7 59091.3 53216.7 59093.9 53206.8 59096.9 53204.8 59096.8 53202.9 59097.3 53192.6 59096.5 53182.2 59096.3 53180.4 59095.6 53178.4 59095.4 53168.9 59091.4 53159.1 59087.8 53157.6 59086.6 53155.7 59085.8 53142.6 59075.3 53111.3 59043.9 52831.2 58927.9 51308.8 58927.9 51028.7 59043.9 50814.3 59258.3 50698.3 59538.4 50698.3 59841.6 50814.3 60121.7 51028.7 60336.1 51308.8 60452.1 52831.2 60452.1 53111.3 60336.1 53325.7 60121.7 53441.7 59841.6 53441.7 59562.3 53443.1 59553.2 53443.9 59544.2 53445.1 59541.2 53445.6 59538 53449.9 59529.9 53453.5 59521.5 53456.1 59518.3 53457.2 59516.2 53459.5 59514 53464 59508.4 56258 56714.4 56263.8 56710.2 56269 56705.3 56273.7 56703.1 56277.9 56700.1 56284.8 56698 56291.3 56694.9 56296.5 56694.4 56301.5 56692.8 56308.6 56693 56315.7 56692.2 56320.8 56693.3 56326 56693.5 56332.8 56695.9 56339.8 56697.4 56344.3 56700.1 56349.1 56701.9 56354.7 56706.4 56360.9 56710.1 56364.3 56714 56368.3 56717.3 56372.2 56723.3 56376.9 56728.8 56378.8 56733.6 56381.6 56738 56383.4 56744.9 56386.1 56751.6 56386.9 56758.7 56387.7 56761.8 56387.5 56764.2 56387.9 56768.2 56387.9 58827.1 56386.5 58836.2 56385.7 58845.2 56384.5 58848.2 56384 58851.4 56379.7 58859.5 56376.1 58867.9 56373.5 58871.1 56372.4 58873.2 56370.1 58875.4 56365.6 58881 53440.8 61805.8 53439.2 61807 53437.9 61808.5 53429.2 61814.1 53420.8 61820.2 53418.9 61820.7 53417.2 61821.8 53407.2 61824.4 53397.3 61827.4 53395.3 61827.3 53393.4 61827.8 53383.1 61827 53372.7 61826.8 53370.9 61826.1 53368.9 61825.9 53359.4 61821.9 53349.6 61818.3 53348.1 61817.1 53346.2 61816.3 53333.1 61805.8 53111.3 61583.9 52831.2 61467.9 51308.8 61467.9 51028.7 61583.9 50814.3 61798.3 50698.3 62078.4 50698.3 62381.6 50814.3 62661.7 51028.7 62876.1 51308.8 62992.1 52831.2 62992.1 53111.3 62876.1 53325.7 62661.7 53390.3 62505.7 53396.4 62495.7 53402.4 62485.7 53402.9 62485.3 53403.2 62484.8 53412.2 62477.3 53421.1 62469.7 53421.7 62469.5 53422.2 62469.1 53425.6 62467.8 56664.4 59229 56670.2 59224.8 56675.4 59219.9 56680.1 59217.7 56684.3 59214.7 56691.2 59212.6 56697.7 59209.5 56702.9 59209 56707.9 59207.4 56715 59207.6 56722.1 59206.8 56727.2 59207.9 56732.4 59208.1 56739.2 59210.5 56746.2 59212 56750.7 59214.7 56755.5 59216.5 56761.1 59221 56767.3 59224.7 56770.7 59228.6 56774.7 59231.9 56778.6 59237.9 56783.3 59243.4 56785.2 59248.2 56788 59252.6 56789.8 59259.5 56792.5 59266.2 56793.3 59273.3 56794.1 59276.4 56793.9 59278.8 56794.3 59282.8 56794.3 60960.7 56792.9 60969.8 56792.1 60978.8 56790.9 60981.8 56790.4 60985 56786.1 60993.1 56782.5 61001.5 56779.9 61004.7 56778.8 61006.8 56776.5 61009 56772 61014.6 53440.8 64345.8 53439.2 64347 53437.9 64348.5 53429.2 64354.1 53420.8 64360.2 53418.9 64360.7 53417.2 64361.8 53407.2 64364.4 53397.3 64367.4 53395.3 64367.3 53393.4 64367.8 53383.1 64367 53372.7 64366.8 53370.9 64366.1 53368.9 64365.9 53359.4 64361.9 53349.6 64358.3 53348.1 64357.1 53346.2 64356.3 53333.1 64345.8 53111.3 64123.9 52831.2 64007.9 51308.8 64007.9 51028.7 64123.9 50814.3 64338.3 50698.3 64618.4 50698.3 64921.6 50814.3 65201.7 51028.7 65416.1 51308.8 65532.1 52831.2 65532.1 53111.3 65416.1 53325.7 65201.7 53390.3 65045.7 53396.4 65035.7 53402.4 65025.7 53402.9 65025.3 53403.2 65024.8 53412.2 65017.3 53421.1 65009.7 53421.7 65009.5 53422.2 65009.1 53425.6 65007.8 57251.7 61181.7 57251.7 27210.3 53210 23168.6 53204.7 23161.2 53198.7 23154.2 53197.5 23151.2 53195.6 23148.6 53192.9 23139.9 53189.5 23131.4 53189.1 23127.3 53188.4 23125.1 53188.5 23121.9 53187.7 23114.7 53187.7 8724.9 53188 8722.9 53187.8 8721 53190 8710.8 53191.6 8700.6 53192.6 8698.9 53193 8696.9 53198.3 8688 53203.2 8678.9 53204.6 8677.5 53205.6 8675.8 53213.5 8669.1 53221 8661.9 53222.8 8661.1 53224.3 8659.8 53233.9 8655.9 53243.3 8651.6 53245.3 8651.4 53247.1 8650.6 53263.8 8648.8 53784.2 8648.8 53873.5 8559.5 53873.5 457.2 53873.8 455.2 53873.6 453.3 53875.8 443.1 53877.4 432.9 53878.4 431.2 53878.8 429.2 53884.1 420.3 53889 411.2 53890.4 409.8 53891.4 408.1 53899.3 401.4 53906.8 394.2 53908.6 393.4 53910.1 392.1 53919.7 388.2 53929.1 383.9 53931.1 383.7 53932.9 382.9 53949.6 381.1 54406.8 381.1 54408.8 381.4 54410.7 381.2 54420.9 383.4 54431.1 385 54432.8 386 54434.8 386.4 54443.7 391.7 54452.8 396.6 54454.2 398 54455.9 399 54462.6 406.9 54469.8 414.4 54470.6 416.2 54471.9 417.7 54475.8 427.3 54480.1 436.7 54480.3 438.7 54481.1 440.5 54482.9 457.2 54482.9 4343.5 55422.8 4343.5 55424.8 4343.8 55426.7 4343.6 55436.9 4345.8 55447.1 4347.5 55448.8 4348.4 55450.8 4348.8 55459.7 4354.1 55468.8 4359 55470.2 4360.4 55471.9 4361.4 55478.6 4369.3 55485.7 4376.8 55486.6 4378.6 55487.9 4380.1 55491.8 4389.7 55496.1 4399.1 55496.3 4401.1 55497.1 4402.9 55498.9 4419.6 55498.9 4495.9 55499.1 4495.9 55499.1 4419.6 55499.4 4417.6 55499.2 4415.7 55501.4 4405.5 55503.1 4395.3 55504 4393.6 55504.4 4391.6 55509.7 4382.7 55514.6 4373.6 55516 4372.2 55517 4370.5 55524.9 4363.8 55532.4 4356.7 55534.2 4355.8 55535.7 4354.5 55545.3 4350.6 55554.7 4346.3 55556.7 4346.1 55558.5 4345.3 55575.2 4343.5 56515.1 4343.5 56515.1 687.2 56515.9 681.9 56515.8 676.5 56517.9 669.8 56519 662.9 56521.6 658.1 56523.2 653 56527.3 647.3 56530.6 641.1 56534.4 637.4 56537.6 633.1 56543.3 629 56548.4 624.2 56553.3 621.9 56557.6 618.8 56564.3 616.8 56570.7 613.8 56576 613.3 56581.2 611.7 56588.2 611.9 56595.1 611.1 56600.4 612.3 56605.8 612.4 56612.3 614.9 56619.2 616.4 56623.8 619.1 56628.8 621 56637.8 627.5 56640.3 629 56641 629.8 56642.4 630.8 57506 1415.9 57512.8 1424.4 57519.9 1432.8 57520.4 1434.1 57521.3 1435.2 57525 1445.4 57529.1 1455.6 57529.3 1457.3 57529.6 1458.3 57529.7 1461.2 57530.9 1472.3 57530.9 82542.8 57530.6 82544.8 57530.8 82546.7 57528.6 82556.9 57527 82567.1 57526 82568.8 57525.6 82570.8 57520.3 82579.7 57515.4 82588.8 57514 82590.2 57513 82591.9 57505.1 82598.6 57497.6 82605.8 57495.8 82606.6 57494.3 82607.9 57484.7 82611.8 57475.3 82616.1 57473.3 82616.3 57471.5 82617.1 57454.8 82618.9 457.2 82618.9 455.2 82618.6 453.3 82618.8 443.1 82616.6 432.9 82615 431.2 82614 429.2 82613.6 420.3 82608.3 411.2 82603.4 409.8 82602 408.1 82601 401.4 82593.1 394.2 82585.6 393.4 82583.8 392.1 82582.3 388.2 82572.7 383.9 82563.3 383.7 82561.3 382.9 82559.5 381.1 82542.8 381.1 1459.4 382.5 1450.4 383.3 1441.3 384.5 1438.3 385 1435.1 389.3 1427 392.9 1418.6 395.5 1415.4 396.6 1413.4 398.9 1411.1 403.4 1405.5 1013 795.9 1018.8 791.8 1024 786.8 1028.7 784.6 1032.9 781.6 1039.8 779.5 1046.3 776.5 1051.5 775.9 1056.5 774.4 1063.6 774.5 1070.7 773.8 1075.8 774.9 1081 775 1087.8 777.5 1094.8 779 1099.2 781.6 1104.1 783.4 1109.7 787.9 1115.9 791.6 1119.3 795.6 1123.3 798.8 1127.2 804.8 1131.9 810.3 1133.8 815.1 1136.6 819.5 1138.4 826.4 1141.1 833.1 1141.9 840.2 1142.7 843.4 1142.5 845.7 1142.9 849.8 1142.9 4343.5 2082.8 4343.5 2084.8 4343.8 2086.7 4343.6 2096.9 4345.8 2107.1 4347.5 2108.8 4348.4 2110.8 4348.8 2119.7 4354.1 2128.8 4359 2130.2 4360.4 2131.9 4361.4 2138.6 4369.3 2145.7 4376.8 2146.6 4378.6 2147.9 4380.1 2151.8 4389.7 2156.1 4399.1 2156.3 4401.1 2157.1 4402.9 2158.9 4419.6 2158.9 4495.9 2159.1 4495.9 2159.1 4419.6 2159.4 4417.6 2159.2 4415.7 2161.4 4405.5 2163.1 4395.3 2164 4393.6 2164.4 4391.6 2169.7 4382.7 2174.6 4373.6 2176 4372.2 2177 4370.5 2184.9 4363.8 2192.4 4356.7 2194.2 4355.8 2195.7 4354.5 2205.3 4350.6 2214.7 4346.3 2216.7 4346.1 2218.5 4345.3 2235.2 4343.5 3175.1 4343.5 3175.1 457.2 3175.4 455.2 3175.2 453.3 3177.4 443.1 3179 432.9 3180 431.2 3180.4 429.2 3185.7 420.3 3190.6 411.2 3192 409.8 3193 408.1 3200.9 401.4 3208.4 394.2 3210.2 393.4 3211.7 392.1 3221.3 388.2 3230.7 383.9 3232.7 383.7 3234.5 382.9 3251.2 381.1 3708.4 381.1 3710.4 381.4"/></g></g></g></g></g></g></g></g></g></g></g></g></g></g></g></g></g></g></g></g></g></g></g></g></g></g></g></g></g></g></g></g></g></g></g></g></g></g></g></g></g><use xlink:href="#zz7B0upcNVMtEkcaUB-m_pad-10" x="36830" y="36830"/><use xlink:href="#zz7B0upcNVMtEkcaUB-m_pad-10" x="39370" y="36830"/><path d="M 51460.4 41910 52679.6 41910 M 52679.6 44450 51460.4 44450 M 51460.4 57150 52679.6 57150 M 52679.6 59690 51460.4 59690 M 51460.4 46990 52679.6 46990 M 52679.6 49530 51460.4 49530 M 51460.4 54610 52679.6 54610 M 52679.6 52070 51460.4 52070 M 51460.4 62230 52679.6 62230 M 52679.6 64770 51460.4 64770 M 51460.4 67310 52679.6 67310 M 52679.6 69850 51460.4 69850 M 51460.4 72390 52679.6 72390 M 52679.6 74930 51460.4 74930 M 37439.6 74930 36220.4 74930 M 36220.4 72390 37439.6 72390 M 37439.6 69850 36220.4 69850 M 36220.4 67310 37439.6 67310 M 37439.6 64770 36220.4 64770 M 36220.4 62230 37439.6 62230 M 37439.6 59690 36220.4 59690 M 36220.4 57150 37439.6 57150 M 37439.6 54610 36220.4 54610 M 36220.4 52070 37439.6 52070 M 37439.6 49530 36220.4 49530 M 36220.4 46990 37439.6 46990 M 37439.6 44450 36220.4 44450 M 36220.4 41910 37439.6 41910 M 11430 45190.4 11430 46409.6 M 11430 55190.4 11430 56409.6 M 15240 46409.6 15240 45190.4 M 15240 55190.4 15240 56409.6" fill="none" stroke-width="1219.2"/><use xlink:href="#zz7B0upcNVMtEkcaUB-m_pad-12" x="2159" y="4495.8"/><use xlink:href="#zz7B0upcNVMtEkcaUB-m_pad-12" x="4699" y="4495.8"/><use xlink:href="#zz7B0upcNVMtEkcaUB-m_pad-12" x="7239" y="4495.8"/><use xlink:href="#zz7B0upcNVMtEkcaUB-m_pad-12" x="9779" y="4495.8"/><use xlink:href="#zz7B0upcNVMtEkcaUB-m_pad-12" x="12319" y="4495.8"/><use xlink:href="#zz7B0upcNVMtEkcaUB-m_pad-12" x="14859" y="4495.8"/><use xlink:href="#zz7B0upcNVMtEkcaUB-m_pad-12" x="17399" y="4495.8"/><use xlink:href="#zz7B0upcNVMtEkcaUB-m_pad-12" x="19939" y="4495.8"/><use xlink:href="#zz7B0upcNVMtEkcaUB-m_pad-12" x="22479" y="4495.8"/><use xlink:href="#zz7B0upcNVMtEkcaUB-m_pad-12" x="25019" y="4495.8"/><use xlink:href="#zz7B0upcNVMtEkcaUB-m_pad-12" x="27559" y="4495.8"/><use xlink:href="#zz7B0upcNVMtEkcaUB-m_pad-12" x="30099" y="4495.8"/><use xlink:href="#zz7B0upcNVMtEkcaUB-m_pad-12" x="32639" y="4495.8"/><use xlink:href="#zz7B0upcNVMtEkcaUB-m_pad-12" x="35179" y="4495.8"/><use xlink:href="#zz7B0upcNVMtEkcaUB-m_pad-12" x="37719" y="4495.8"/><use xlink:href="#zz7B0upcNVMtEkcaUB-m_pad-12" x="40259" y="4495.8"/><use xlink:href="#zz7B0upcNVMtEkcaUB-m_pad-12" x="42799" y="4495.8"/><use xlink:href="#zz7B0upcNVMtEkcaUB-m_pad-12" x="45339" y="4495.8"/><use xlink:href="#zz7B0upcNVMtEkcaUB-m_pad-12" x="47879" y="4495.8"/><use xlink:href="#zz7B0upcNVMtEkcaUB-m_pad-12" x="50419" y="4495.8"/><use xlink:href="#zz7B0upcNVMtEkcaUB-m_pad-12" x="52959" y="4495.8"/><use xlink:href="#zz7B0upcNVMtEkcaUB-m_pad-12" x="55499" y="4495.8"/><path d="M 11430 63550.8 11430 64770 M 13970 64770 13970 63550.8 M 13970 67310 13970 68529.2 M 13970 71780.4 13970 72999.6 M 11430 72999.6 11430 71780.4 M 11430 68529.2 11430 67310" fill="none" stroke-width="1219.2"/><path d="M 52070 64770 53340 64770 57023 61087 57023 27305 M 52959 23241 52959 4495.8 M 52959 23241 57023 27305 M 53340 62230 52070 62230 M 53340 62230 56616.6 58953.4 M 50419 21209 50419 4495.8 M 56616.6 27406.6 56616.6 58953.4 M 56616.6 27406.6 50419 21209 M 52070 59690 52959 59690 56261 56388 56261 27559 M 47879 19177 47879 4495.8 M 47879 19177 56261 27559 M 52959 57150 52070 57150 M 52959 57150 55854.6 54254.4 M 45339 17145 45339 4495.8 M 55854.6 27660.6 55854.6 54254.4 M 55854.6 27660.6 45339 17145 M 52070 54610 53340 54610 55499 52451 55499 27813 M 42799 15113 42799 4495.8 M 42799 15113 55499 27813 M 53340 52070 52070 52070 M 53340 52070 55092.6 50317.4 M 40259 13081 40259 4495.8 M 55092.6 27914.6 55092.6 50317.4 M 55092.6 27914.6 40259 13081 M 52070 49530 53340 49530 54686.2 48183.8 M 37719 11049 37719 4495.8 M 54686.2 28016.2 54686.2 48183.8 M 54686.2 28016.2 37719 11049 M 54279.8 46050.2 53340 46990 52070 46990 M 35179 9017 35179 4495.8 M 35179 9017 54279.8 28117.8 54279.8 46050.2 M 36830 49530 35560 49530 34417 48387 34417 19050 33020 17653 33020 4749.8 32639 4495.8 M 34010.6 49250.6 36830 52070 M 34010.6 19165.7 30099 15254.1 30099 4495.8 M 34010.6 19165.7 34010.6 49250.6" fill="none" stroke-width="152.4"/><use xlink:href="#zz7B0upcNVMtEkcaUB-m_pad-14" x="27940" y="16000"/><path d="M 27940 16000 27940 4749.8 27559 4495.8" fill="none" stroke-width="152.4"/><use xlink:href="#zz7B0upcNVMtEkcaUB-m_pad-14" x="24130" y="26670"/><path d="M 24130 26670 24130 48260 35560 59690 36830 59690 M 33604.2 27254.2 25019 18669 M 36830 53951.7 36830 54610 M 36830 53951.7 33604.2 50725.9 33604.2 27254.2 M 25019 18669 25019 4495.8 M 52070 44450 53340 44450 53975 43815 53975 28321 M 39624 13970 34925 13970 M 22860 11430 22479 11049 22479 4495.8 M 39624 13970 53975 28321" fill="none" stroke-width="152.4"/><use xlink:href="#zz7B0upcNVMtEkcaUB-m_pad-14" x="34925" y="13970"/><use xlink:href="#zz7B0upcNVMtEkcaUB-m_pad-14" x="22860" y="11430"/><path d="M 36830 41910 52070 41910" fill="none" stroke-width="508"/><use xlink:href="#zz7B0upcNVMtEkcaUB-m_pad-14" x="7620" y="21590"/><path d="M 7620 21590 7620 64770 M 11430 72390 13970 72390 M 11430 72390 11430 67310 M 13970 67310 13970 72390 M 13970 67310 11430 67310 10160 67310 7620 64770 M 36830 41910 36830 36830" fill="none" stroke-width="508"/><path d="M 36830 62230 8890 34290 8890 13970 M 4699 9779 4699 4495.8 M 4699 9779 8890 13970" fill="none" stroke-width="152.4"/><path d="M 15240 63500 13970 64770 M 15240 63500 15240 55800 M 11430 55800 11430 64770" fill="none" stroke-width="254"/></g><g id="pxxSmDuW-8JGaRiC546n_bottom_drill1"><use xlink:href="#hbtbdly8Opy6NgCjrHDV_pad-1" x="28956" y="42500"/><use xlink:href="#hbtbdly8Opy6NgCjrHDV_pad-2" x="13970" y="64770"/><use xlink:href="#hbtbdly8Opy6NgCjrHDV_pad-2" x="13970" y="67310"/><use xlink:href="#hbtbdly8Opy6NgCjrHDV_pad-2" x="13970" y="72390"/><use xlink:href="#hbtbdly8Opy6NgCjrHDV_pad-2" x="11430" y="72390"/><use xlink:href="#hbtbdly8Opy6NgCjrHDV_pad-2" x="52070" y="57150"/><use xlink:href="#hbtbdly8Opy6NgCjrHDV_pad-2" x="36830" y="36830"/><use xlink:href="#hbtbdly8Opy6NgCjrHDV_pad-2" x="39370" y="36830"/><use xlink:href="#hbtbdly8Opy6NgCjrHDV_pad-2" x="52070" y="41910"/><use xlink:href="#hbtbdly8Opy6NgCjrHDV_pad-2" x="52070" y="44450"/><use xlink:href="#hbtbdly8Opy6NgCjrHDV_pad-2" x="11430" y="67310"/><use xlink:href="#hbtbdly8Opy6NgCjrHDV_pad-2" x="52070" y="59690"/><use xlink:href="#hbtbdly8Opy6NgCjrHDV_pad-2" x="52070" y="46990"/><use xlink:href="#hbtbdly8Opy6NgCjrHDV_pad-2" x="52070" y="49530"/><use xlink:href="#hbtbdly8Opy6NgCjrHDV_pad-2" x="52070" y="54610"/><use xlink:href="#hbtbdly8Opy6NgCjrHDV_pad-2" x="52070" y="52070"/><use xlink:href="#hbtbdly8Opy6NgCjrHDV_pad-2" x="52070" y="62230"/><use xlink:href="#hbtbdly8Opy6NgCjrHDV_pad-2" x="52070" y="64770"/><use xlink:href="#hbtbdly8Opy6NgCjrHDV_pad-2" x="52070" y="67310"/><use xlink:href="#hbtbdly8Opy6NgCjrHDV_pad-2" x="52070" y="69850"/><use xlink:href="#hbtbdly8Opy6NgCjrHDV_pad-2" x="52070" y="72390"/><use xlink:href="#hbtbdly8Opy6NgCjrHDV_pad-2" x="52070" y="74930"/><use xlink:href="#hbtbdly8Opy6NgCjrHDV_pad-2" x="36830" y="74930"/><use xlink:href="#hbtbdly8Opy6NgCjrHDV_pad-2" x="36830" y="72390"/><use xlink:href="#hbtbdly8Opy6NgCjrHDV_pad-2" x="36830" y="69850"/><use xlink:href="#hbtbdly8Opy6NgCjrHDV_pad-2" x="36830" y="67310"/><use xlink:href="#hbtbdly8Opy6NgCjrHDV_pad-2" x="36830" y="64770"/><use xlink:href="#hbtbdly8Opy6NgCjrHDV_pad-2" x="36830" y="62230"/><use xlink:href="#hbtbdly8Opy6NgCjrHDV_pad-2" x="36830" y="59690"/><use xlink:href="#hbtbdly8Opy6NgCjrHDV_pad-2" x="36830" y="57150"/><use xlink:href="#hbtbdly8Opy6NgCjrHDV_pad-2" x="36830" y="54610"/><use xlink:href="#hbtbdly8Opy6NgCjrHDV_pad-2" x="36830" y="52070"/><use xlink:href="#hbtbdly8Opy6NgCjrHDV_pad-2" x="36830" y="49530"/><use xlink:href="#hbtbdly8Opy6NgCjrHDV_pad-2" x="36830" y="46990"/><use xlink:href="#hbtbdly8Opy6NgCjrHDV_pad-2" x="36830" y="44450"/><use xlink:href="#hbtbdly8Opy6NgCjrHDV_pad-2" x="36830" y="41910"/><use xlink:href="#hbtbdly8Opy6NgCjrHDV_pad-2" x="11430" y="45800"/><use xlink:href="#hbtbdly8Opy6NgCjrHDV_pad-2" x="11430" y="55800"/><use xlink:href="#hbtbdly8Opy6NgCjrHDV_pad-2" x="15240" y="45800"/><use xlink:href="#hbtbdly8Opy6NgCjrHDV_pad-2" x="15240" y="55800"/><use xlink:href="#hbtbdly8Opy6NgCjrHDV_pad-2" x="11430" y="64770"/><use xlink:href="#hbtbdly8Opy6NgCjrHDV_pad-3" x="24130" y="26670"/><use xlink:href="#hbtbdly8Opy6NgCjrHDV_pad-3" x="34925" y="13970"/><use xlink:href="#hbtbdly8Opy6NgCjrHDV_pad-3" x="22860" y="11430"/><use xlink:href="#hbtbdly8Opy6NgCjrHDV_pad-3" x="7620" y="21590"/><use xlink:href="#hbtbdly8Opy6NgCjrHDV_pad-3" x="27940" y="16000"/></g><clipPath id="pxxSmDuW-8JGaRiC546n_bottom_outline"><path d="M 57912 1270 57912 83000 0 83000 0 1270 1270 0 56515 0 57912 1270 M 26456 42500 26456.8 42561.4 26459 42622.7 26462.8 42683.9 26468 42745 26474.8 42806 26483.1 42866.8 26492.8 42927.4 26504 42987.7 26516.7 43047.8 26530.9 43107.5 26546.6 43166.8 26563.6 43225.7 26582.2 43284.2 26602.1 43342.2 26623.5 43399.7 26646.3 43456.7 26670.5 43513.1 26696 43568.9 26722.9 43624 26751.2 43678.5 26780.8 43732.2 26811.7 43785.3 26843.9 43837.5 26877.3 43888.9 26912 43939.5 26948 43989.2 26985.1 44038.1 27023.5 44086 27063 44132.9 27103.6 44178.9 27145.4 44223.9 27188.2 44267.8 27232.1 44310.6 27277.1 44352.4 27323.1 44393 27370 44432.5 27417.9 44470.9 27466.8 44508 27516.5 44544 27567.1 44578.7 27618.5 44612.1 27670.7 44644.3 27723.8 44675.2 27777.5 44704.8 27832 44733.1 27887.1 44760 27942.9 44785.5 27999.3 44809.7 28056.3 44832.5 28113.8 44853.9 28171.8 44873.8 28230.3 44892.4 28289.2 44909.4 28348.5 44925.1 28408.2 44939.3 28468.3 44952 28528.6 44963.2 28589.2 44972.9 28650 44981.2 28711 44988 28772.1 44993.2 28833.3 44997 28894.6 44999.2 28956 45000 29017.4 44999.2 29078.7 44997 29139.9 44993.2 29201 44988 29262 44981.2 29322.8 44972.9 29383.4 44963.2 29443.7 44952 29503.8 44939.3 29563.5 44925.1 29622.8 44909.4 29681.7 44892.4 29740.2 44873.8 29798.2 44853.9 29855.7 44832.5 29912.7 44809.7 29969.1 44785.5 30024.9 44760 30080 44733.1 30134.5 44704.8 30188.2 44675.2 30241.3 44644.3 30293.5 44612.1 30344.9 44578.7 30395.5 44544 30445.2 44508 30494.1 44470.9 30542 44432.5 30588.9 44393 30634.9 44352.4 30679.9 44310.6 30723.8 44267.8 30766.6 44223.9 30808.4 44178.9 30849 44132.9 30888.5 44086 30926.9 44038.1 30964 43989.2 31000 43939.5 31034.7 43888.9 31068.1 43837.5 31100.3 43785.3 31131.2 43732.2 31160.8 43678.5 31189.1 43624 31216 43568.9 31241.5 43513.1 31265.7 43456.7 31288.5 43399.7 31309.9 43342.2 31329.8 43284.2 31348.4 43225.7 31365.4 43166.8 31381.1 43107.5 31395.3 43047.8 31408 42987.7 31419.2 42927.4 31428.9 42866.8 31437.2 42806 31444 42745 31449.2 42683.9 31453 42622.7 31455.2 42561.4 31456 42500 31455.2 42438.6 31453 42377.3 31449.2 42316.1 31444 42255 31437.2 42194 31428.9 42133.2 31419.2 42072.6 31408 42012.3 31395.3 41952.2 31381.1 41892.5 31365.4 41833.2 31348.4 41774.3 31329.8 41715.8 31309.9 41657.8 31288.5 41600.3 31265.7 41543.3 31241.5 41486.9 31216 41431.1 31189.1 41376 31160.8 41321.5 31131.2 41267.8 31100.3 41214.7 31068.1 41162.5 31034.7 41111.1 31000 41060.5 30964 41010.8 30926.9 40961.9 30888.5 40914 30849 40867.1 30808.4 40821.1 30766.6 40776.1 30723.8 40732.2 30679.9 40689.4 30634.9 40647.6 30588.9 40607 30542 40567.5 30494.1 40529.1 30445.2 40492 30395.5 40456 30344.9 40421.3 30293.5 40387.9 30241.3 40355.7 30188.2 40324.8 30134.5 40295.2 30080 40266.9 30024.9 40240 29969.1 40214.5 29912.7 40190.3 29855.7 40167.5 29798.2 40146.1 29740.2 40126.2 29681.7 40107.6 29622.8 40090.6 29563.5 40074.9 29503.8 40060.7 29443.7 40048 29383.4 40036.8 29322.8 40027.1 29262 40018.8 29201 40012 29139.9 40006.8 29078.7 40003 29017.4 40000.8 28956 40000 28894.6 40000.8 28833.3 40003 28772.1 40006.8 28711 40012 28650 40018.8 28589.2 40027.1 28528.6 40036.8 28468.3 40048 28408.2 40060.7 28348.5 40074.9 28289.2 40090.6 28230.3 40107.6 28171.8 40126.2 28113.8 40146.1 28056.3 40167.5 27999.3 40190.3 27942.9 40214.5 27887.1 40240 27832 40266.9 27777.5 40295.2 27723.8 40324.8 27670.7 40355.7 27618.5 40387.9 27567.1 40421.3 27516.5 40456 27466.8 40492 27417.9 40529.1 27370 40567.5 27323.1 40607 27277.1 40647.6 27232.1 40689.4 27188.2 40732.2 27145.4 40776.1 27103.6 40821.1 27063 40867.1 27023.5 40914 26985.1 40961.9 26948 41010.8 26912 41060.5 26877.3 41111.1 26843.9 41162.5 26811.7 41214.7 26780.8 41267.8 26751.2 41321.5 26722.9 41376 26696 41431.1 26670.5 41486.9 26646.3 41543.3 26623.5 41600.3 26602.1 41657.8 26582.2 41715.8 26563.6 41774.3 26546.6 41833.2 26530.9 41892.5 26516.7 41952.2 26504 42012.3 26492.8 42072.6 26483.1 42133.2 26474.8 42194 26468 42255 26462.8 42316.1 26459 42377.3 26456.8 42438.6 26456 42500 M 31456 42429.9 31448.1 42289.8 31432.4 42150.4 31408.9 42012.1 31377.7 41875.3 31338.9 41740.5 31292.5 41608.1 31238.9 41478.5 31178 41352.1 31110.1 41229.3 31035.5 41110.5 30954.3 40996.1 30866.8 40886.4 30773.4 40781.8 30674.2 40682.6 30569.6 40589.2 30459.9 40501.7 30345.5 40420.5 30226.7 40345.9 30103.9 40278 29977.5 40217.1 29847.9 40163.5 29715.5 40117.1 29580.7 40078.3 29443.9 40047.1 29305.6 40023.6 29166.2 40007.9 29026.1 40000 28885.9 40000 28745.8 40007.9 28606.4 40023.6 28468.1 40047.1 28331.3 40078.3 28196.5 40117.1 28064.1 40163.5 27934.5 40217.1 27808.1 40278 27685.3 40345.9 27566.5 40420.5 27452.1 40501.7 27342.4 40589.2 27237.8 40682.6 27138.6 40781.8 27045.2 40886.4 26957.7 40996.1 26876.5 41110.5 26801.9 41229.3 26734 41352.1 26673.1 41478.5 26619.5 41608.1 26573.1 41740.5 26534.3 41875.3 26503.1 42012.1 26479.6 42150.4 26463.9 42289.8 26456 42429.9 26456 42570.1 26463.9 42710.2 26479.6 42849.6 26503.1 42987.9 26534.3 43124.7 26573.1 43259.5 26619.5 43391.9 26673.1 43521.5 26734 43647.9 26801.9 43770.7 26876.5 43889.5 26957.7 44003.9 27045.2 44113.6 27138.6 44218.2 27237.8 44317.4 27342.4 44410.8 27452.1 44498.3 27566.5 44579.5 27685.3 44654.1 27808.1 44722 27934.5 44782.9 28064.1 44836.5 28196.5 44882.9 28331.3 44921.7 28468.1 44952.9 28606.4 44976.4 28745.8 44992.1 28885.9 45000 29026.1 45000 29166.2 44992.1 29305.6 44976.4 29443.9 44952.9 29580.7 44921.7 29715.5 44882.9 29847.9 44836.5 29977.5 44782.9 30103.9 44722 30226.7 44654.1 30345.5 44579.5 30459.9 44498.3 30569.6 44410.8 30674.2 44317.4 30773.4 44218.2 30866.8 44113.6 30954.3 44003.9 31035.5 43889.5 31110.1 43770.7 31178 43647.9 31238.9 43521.5 31292.5 43391.9 31338.9 43259.5 31377.7 43124.7 31408.9 42987.9 31432.4 42849.6 31448.1 42710.2 31456 42570.1 31456 42429.9" fill="none" stroke-width="0"/></clipPath><mask id="pxxSmDuW-8JGaRiC546n_bottom_mech-mask"><g fill="#000" stroke="#000"><rect x="0" y="0" width="57912" height="83000" fill="#fff"/><use xlink:href="#pxxSmDuW-8JGaRiC546n_bottom_drill1"/></g></mask><mask id="pxxSmDuW-8JGaRiC546n_bottom_cf-mask"><g fill="#fff" stroke="#fff"><use xlink:href="#pxxSmDuW-8JGaRiC546n_bottom_soldermask"/></g></mask><mask id="pxxSmDuW-8JGaRiC546n_bottom_sm-mask"><g fill="#000" stroke="#000"><rect x="0" y="0" width="57912" height="83000" fill="#fff"/><use xlink:href="#pxxSmDuW-8JGaRiC546n_bottom_soldermask"/></g></mask></defs><g transform="translate(0,83000) scale(1,-1)"><g mask="url(#pxxSmDuW-8JGaRiC546n_bottom_mech-mask)" clip-path="url(#pxxSmDuW-8JGaRiC546n_bottom_outline)" transform="translate(57912,0) scale(-1,1)"><rect x="0" y="0" width="57912" height="83000" fill="currentColor" class="pxxSmDuW-8JGaRiC546n_fr4"/><use xlink:href="#pxxSmDuW-8JGaRiC546n_bottom_copper" fill="currentColor" stroke="currentColor" class="pxxSmDuW-8JGaRiC546n_cu"/><use xlink:href="#pxxSmDuW-8JGaRiC546n_bottom_copper" fill="currentColor" stroke="currentColor" class="pxxSmDuW-8JGaRiC546n_cf" mask="url(#pxxSmDuW-8JGaRiC546n_bottom_cf-mask)"/><g mask="url(#pxxSmDuW-8JGaRiC546n_bottom_sm-mask)"><rect x="0" y="0" width="57912" height="83000" fill="currentColor" class="pxxSmDuW-8JGaRiC546n_sm"/></g><use xlink:href="#pxxSmDuW-8JGaRiC546n_bottom_solderpaste" fill="currentColor" stroke="currentColor" class="pxxSmDuW-8JGaRiC546n_sp"/></g></g></svg>